# MagicaVoxel @ Ephtracy

# group
o 

# material
mtllib egg_heart_bottomhalf.mtl
usemtl palette

# normals
vn -1 0 0
vn 1 0 0
vn 0 0 1
vn 0 0 -1
vn 0 -1 0
vn 0 1 0

# texcoords
vt 0.0175781 0.5
vt 0.892578 0.5

# verts
v 0 0.1 -0.2
v 0 0.1 -0.9
v 0 0.2 -0.1
v 0 0.2 -0.2
v 0 0.2 -0.5
v 0 0.2 -0.6
v 0 0.2 -0.9
v 0 0.2 -1
v 0 0.3 -0.4
v 0 0.3 -0.5
v 0 0.3 -0.6
v 0 0.3 -0.7
v 0 0.4 -0.3
v 0 0.4 -0.4
v 0 0.4 -0.7
v 0 0.4 -1
v 0 0.5 -0.2
v 0 0.5 -0.3
v 0 0.5 -0.4
v 0 0.5 -0.7
v 0 0.6 -0.1
v 0 0.6 -0.2
v 0 0.6 -0.4
v 0.1 0 -0.2
v 0.1 0 -0.9
v 0.1 0.1 -0.1
v 0.1 0.1 -0.2
v 0.1 0.1 -0.9
v 0.1 0.1 -1
v 0.1 0.2 0
v 0.1 0.2 -0.1
v 0.1 0.2 -0.2
v 0.1 0.2 -0.9
v 0.1 0.2 -1
v 0.1 0.2 -1.1
v 0.1 0.3 -1
v 0.1 0.3 -1.1
v 0.1 0.6 -0.1
v 0.1 0.7 0
v 0.1 0.7 -0.1
v 0.2 0 -0.1
v 0.2 0 -0.2
v 0.2 0 -0.9
v 0.2 0 -1
v 0.2 0.1 0
v 0.2 0.1 -0.1
v 0.2 0.1 -0.2
v 0.2 0.1 -0.9
v 0.2 0.1 -1
v 0.2 0.1 -1.1
v 0.2 0.2 0
v 0.2 0.2 -0.1
v 0.2 0.2 -1
v 0.2 0.2 -1.1
v 0.9 0.1 -0.1
v 0.9 0.1 -0.2
v 0.9 0.1 -0.9
v 0.9 0.1 -1
v 0.9 0.2 -0.1
v 0.9 0.2 -0.2
v 0.9 0.2 -0.9
v 0.9 0.2 -1
v 1 0.1 -0.2
v 1 0.1 -0.9
v 1 0.2 -0.1
v 1 0.2 -0.2
v 1 0.2 -0.5
v 1 0.2 -0.6
v 1 0.2 -0.9
v 1 0.3 -0.4
v 1 0.3 -0.5
v 1 0.3 -0.6
v 1 0.3 -0.9
v 1 0.4 -0.3
v 1 0.4 -0.4
v 1 0.4 -0.6
v 1 0.5 -0.1
v 1 0.5 -0.3
v 0.1 0.1 -0.2
v 0.1 0.1 -0.9
v 0.1 0.2 -0.1
v 0.1 0.2 -0.2
v 0.1 0.2 -0.5
v 0.1 0.2 -0.6
v 0.1 0.2 -0.9
v 0.1 0.2 -1
v 0.1 0.3 -0.4
v 0.1 0.3 -0.5
v 0.1 0.3 -0.6
v 0.1 0.3 -0.7
v 0.1 0.3 -1
v 0.1 0.4 -0.3
v 0.1 0.4 -0.4
v 0.1 0.4 -0.7
v 0.1 0.4 -1
v 0.1 0.5 -0.2
v 0.1 0.5 -0.3
v 0.1 0.5 -0.4
v 0.1 0.5 -0.7
v 0.1 0.6 -0.1
v 0.1 0.6 -0.2
v 0.1 0.6 -0.4
v 0.2 0.1 -0.1
v 0.2 0.1 -0.2
v 0.2 0.1 -0.9
v 0.2 0.1 -1
v 0.2 0.2 -0.1
v 0.2 0.2 -0.2
v 0.2 0.2 -0.9
v 0.2 0.2 -1
v 0.2 0.6 0
v 0.2 0.6 -0.1
v 0.2 0.7 0
v 0.2 0.7 -0.1
v 0.7 0.2 -1
v 0.7 0.2 -1.1
v 0.7 0.3 -1
v 0.7 0.3 -1.1
v 0.9 0 -0.1
v 0.9 0 -0.2
v 0.9 0 -0.9
v 0.9 0 -1
v 0.9 0.1 0
v 0.9 0.1 -0.1
v 0.9 0.1 -0.2
v 0.9 0.1 -0.9
v 0.9 0.1 -1
v 0.9 0.1 -1.1
v 0.9 0.2 0
v 0.9 0.2 -0.1
v 0.9 0.2 -1
v 0.9 0.2 -1.1
v 0.9 0.5 0
v 0.9 0.5 -0.1
v 0.9 0.6 0
v 0.9 0.6 -0.1
v 1 0 -0.2
v 1 0 -0.9
v 1 0.1 -0.1
v 1 0.1 -0.2
v 1 0.1 -0.9
v 1 0.1 -1
v 1 0.2 0
v 1 0.2 -0.1
v 1 0.2 -0.2
v 1 0.2 -0.9
v 1 0.2 -1
v 1 0.5 0
v 1 0.5 -0.1
v 1.1 0.1 -0.2
v 1.1 0.1 -0.9
v 1.1 0.2 -0.1
v 1.1 0.2 -0.2
v 1.1 0.2 -0.5
v 1.1 0.2 -0.6
v 1.1 0.3 -0.4
v 1.1 0.3 -0.5
v 1.1 0.3 -0.6
v 1.1 0.3 -0.9
v 1.1 0.4 -0.3
v 1.1 0.4 -0.4
v 1.1 0.4 -0.6
v 1.1 0.5 -0.1
v 1.1 0.5 -0.3
v 0.1 0.2 0
v 0.1 0.7 0
v 0.2 0.1 0
v 0.2 0.2 0
v 0.2 0.5 0
v 0.2 0.6 0
v 0.2 0.7 0
v 0.3 0.4 0
v 0.3 0.5 0
v 0.4 0.3 0
v 0.4 0.4 0
v 0.5 0.2 0
v 0.5 0.3 0
v 0.6 0.2 0
v 0.6 0.3 0
v 0.7 0.3 0
v 0.7 0.4 0
v 0.8 0.4 0
v 0.8 0.5 0
v 0.9 0.1 0
v 0.9 0.2 0
v 0.9 0.5 0
v 0.9 0.6 0
v 1 0.2 0
v 1 0.5 0
v 0 0.2 -0.1
v 0 0.6 -0.1
v 0.1 0.1 -0.1
v 0.1 0.2 -0.1
v 0.1 0.6 -0.1
v 0.2 0 -0.1
v 0.2 0.1 -0.1
v 0.2 0.2 -0.1
v 0.9 0 -0.1
v 0.9 0.1 -0.1
v 0.9 0.2 -0.1
v 1 0.1 -0.1
v 1 0.2 -0.1
v 1 0.5 -0.1
v 1.1 0.2 -0.1
v 1.1 0.5 -0.1
v 0 0.1 -0.2
v 0 0.2 -0.2
v 0.1 0 -0.2
v 0.1 0.1 -0.2
v 0.1 0.2 -0.2
v 0.2 0 -0.2
v 0.2 0.1 -0.2
v 0.9 0 -0.2
v 0.9 0.1 -0.2
v 1 0 -0.2
v 1 0.1 -0.2
v 1 0.2 -0.2
v 1.1 0.1 -0.2
v 1.1 0.2 -0.2
v 0.1 0.1 -0.9
v 0.1 0.2 -0.9
v 0.2 0.1 -0.9
v 0.2 0.2 -0.9
v 0.9 0.1 -0.9
v 0.9 0.2 -0.9
v 1 0.1 -0.9
v 1 0.2 -0.9
v 0.1 0.2 -1
v 0.1 0.3 -1
v 0.2 0.1 -1
v 0.2 0.2 -1
v 0.5 0.2 -1
v 0.5 0.3 -1
v 0.6 0.2 -1
v 0.6 0.3 -1
v 0.7 0.2 -1
v 0.7 0.3 -1
v 0.9 0.1 -1
v 0.9 0.2 -1
v 0.1 0.2 -0.1
v 0.1 0.6 -0.1
v 0.1 0.7 -0.1
v 0.2 0.1 -0.1
v 0.2 0.2 -0.1
v 0.2 0.5 -0.1
v 0.2 0.6 -0.1
v 0.2 0.7 -0.1
v 0.3 0.4 -0.1
v 0.3 0.5 -0.1
v 0.4 0.3 -0.1
v 0.4 0.4 -0.1
v 0.5 0.2 -0.1
v 0.5 0.3 -0.1
v 0.6 0.2 -0.1
v 0.6 0.3 -0.1
v 0.7 0.3 -0.1
v 0.7 0.4 -0.1
v 0.8 0.4 -0.1
v 0.8 0.5 -0.1
v 0.9 0.1 -0.1
v 0.9 0.2 -0.1
v 0.9 0.5 -0.1
v 0.9 0.6 -0.1
v 1 0.2 -0.1
v 1 0.5 -0.1
v 0.1 0.1 -0.2
v 0.1 0.2 -0.2
v 0.2 0.1 -0.2
v 0.2 0.2 -0.2
v 0.9 0.1 -0.2
v 0.9 0.2 -0.2
v 1 0.1 -0.2
v 1 0.2 -0.2
v 1 0.4 -0.3
v 1 0.5 -0.3
v 1.1 0.4 -0.3
v 1.1 0.5 -0.3
v 0 0.5 -0.4
v 0 0.6 -0.4
v 0.1 0.5 -0.4
v 0.1 0.6 -0.4
v 1 0.3 -0.6
v 1 0.4 -0.6
v 1.1 0.3 -0.6
v 1.1 0.4 -0.6
v 0 0.4 -0.7
v 0 0.5 -0.7
v 0.1 0.4 -0.7
v 0.1 0.5 -0.7
v 0 0.1 -0.9
v 0 0.2 -0.9
v 0.1 0 -0.9
v 0.1 0.1 -0.9
v 0.1 0.2 -0.9
v 0.2 0 -0.9
v 0.2 0.1 -0.9
v 0.9 0 -0.9
v 0.9 0.1 -0.9
v 1 0 -0.9
v 1 0.1 -0.9
v 1 0.2 -0.9
v 1 0.3 -0.9
v 1.1 0.1 -0.9
v 1.1 0.3 -0.9
v 0 0.2 -1
v 0 0.4 -1
v 0.1 0.1 -1
v 0.1 0.2 -1
v 0.1 0.3 -1
v 0.1 0.4 -1
v 0.2 0 -1
v 0.2 0.1 -1
v 0.2 0.2 -1
v 0.9 0 -1
v 0.9 0.1 -1
v 0.9 0.2 -1
v 1 0.1 -1
v 1 0.2 -1
v 0.1 0.2 -1.1
v 0.1 0.3 -1.1
v 0.2 0.1 -1.1
v 0.2 0.2 -1.1
v 0.5 0.2 -1.1
v 0.5 0.3 -1.1
v 0.6 0.2 -1.1
v 0.6 0.3 -1.1
v 0.7 0.2 -1.1
v 0.7 0.3 -1.1
v 0.9 0.1 -1.1
v 0.9 0.2 -1.1
v 0.2 0 -0.1
v 0.9 0 -0.1
v 0.1 0 -0.2
v 0.2 0 -0.2
v 0.9 0 -0.2
v 1 0 -0.2
v 0.1 0 -0.9
v 0.2 0 -0.9
v 0.9 0 -0.9
v 1 0 -0.9
v 0.2 0 -1
v 0.9 0 -1
v 0.2 0.1 0
v 0.9 0.1 0
v 0.1 0.1 -0.1
v 0.2 0.1 -0.1
v 0.9 0.1 -0.1
v 1 0.1 -0.1
v 0 0.1 -0.2
v 0.1 0.1 -0.2
v 0.2 0.1 -0.2
v 0.9 0.1 -0.2
v 1 0.1 -0.2
v 1.1 0.1 -0.2
v 0 0.1 -0.9
v 0.1 0.1 -0.9
v 0.2 0.1 -0.9
v 0.9 0.1 -0.9
v 1 0.1 -0.9
v 1.1 0.1 -0.9
v 0.1 0.1 -1
v 0.2 0.1 -1
v 0.9 0.1 -1
v 1 0.1 -1
v 0.2 0.1 -1.1
v 0.9 0.1 -1.1
v 0.1 0.2 0
v 0.2 0.2 0
v 0.9 0.2 0
v 1 0.2 0
v 0 0.2 -0.1
v 0.1 0.2 -0.1
v 0.2 0.2 -0.1
v 0.9 0.2 -0.1
v 1 0.2 -0.1
v 1.1 0.2 -0.1
v 0 0.2 -0.2
v 0.1 0.2 -0.2
v 1 0.2 -0.2
v 1.1 0.2 -0.2
v 0 0.2 -0.9
v 0.1 0.2 -0.9
v 0 0.2 -1
v 0.1 0.2 -1
v 0.2 0.2 -1
v 0.1 0.2 -1.1
v 0.2 0.2 -1.1
v 0.2 0.1 -0.1
v 0.9 0.1 -0.1
v 0.1 0.1 -0.2
v 0.2 0.1 -0.2
v 0.9 0.1 -0.2
v 1 0.1 -0.2
v 0.1 0.1 -0.9
v 0.2 0.1 -0.9
v 0.9 0.1 -0.9
v 1 0.1 -0.9
v 0.2 0.1 -1
v 0.9 0.1 -1
v 0.1 0.2 -0.1
v 0.2 0.2 -0.1
v 0.9 0.2 -0.1
v 1 0.2 -0.1
v 0.1 0.2 -0.2
v 0.2 0.2 -0.2
v 0.9 0.2 -0.2
v 1 0.2 -0.2
v 0.1 0.2 -0.9
v 0.2 0.2 -0.9
v 0.9 0.2 -0.9
v 1 0.2 -0.9
v 0.1 0.2 -1
v 0.2 0.2 -1
v 0.7 0.2 -1
v 0.9 0.2 -1
v 1 0.2 -1
v 0.7 0.2 -1.1
v 0.9 0.2 -1.1
v 1 0.3 -0.6
v 1.1 0.3 -0.6
v 1 0.3 -0.9
v 1.1 0.3 -0.9
v 0.1 0.3 -1
v 0.5 0.3 -1
v 0.6 0.3 -1
v 0.7 0.3 -1
v 0.1 0.3 -1.1
v 0.5 0.3 -1.1
v 0.6 0.3 -1.1
v 0.7 0.3 -1.1
v 1 0.4 -0.3
v 1.1 0.4 -0.3
v 1 0.4 -0.4
v 1.1 0.4 -0.4
v 1 0.4 -0.6
v 1.1 0.4 -0.6
v 0 0.4 -0.7
v 0.1 0.4 -0.7
v 0 0.4 -1
v 0.1 0.4 -1
v 0.9 0.5 0
v 1 0.5 0
v 0.9 0.5 -0.1
v 1 0.5 -0.1
v 1.1 0.5 -0.1
v 1 0.5 -0.3
v 1.1 0.5 -0.3
v 0 0.5 -0.4
v 0.1 0.5 -0.4
v 0 0.5 -0.7
v 0.1 0.5 -0.7
v 0.2 0.6 0
v 0.9 0.6 0
v 0 0.6 -0.1
v 0.1 0.6 -0.1
v 0.2 0.6 -0.1
v 0.9 0.6 -0.1
v 0 0.6 -0.2
v 0.1 0.6 -0.2
v 0 0.6 -0.4
v 0.1 0.6 -0.4
v 0.1 0.7 0
v 0.2 0.7 0
v 0.1 0.7 -0.1
v 0.2 0.7 -0.1

# faces
f 4/1/1 2/1/1 1/1/1
f 5/1/1 2/1/1 4/1/1
f 6/1/1 2/1/1 5/1/1
f 7/1/1 2/1/1 6/1/1
f 9/1/1 4/1/1 3/1/1
f 9/1/1 5/1/1 4/1/1
f 10/2/1 6/2/1 5/2/1
f 10/1/1 5/1/1 9/1/1
f 11/1/1 8/1/1 7/1/1
f 11/2/1 6/2/1 10/2/1
f 11/1/1 7/1/1 6/1/1
f 12/1/1 8/1/1 11/1/1
f 13/1/1 9/1/1 3/1/1
f 14/2/1 10/2/1 9/2/1
f 14/1/1 9/1/1 13/1/1
f 14/2/1 11/2/1 10/2/1
f 14/2/1 12/2/1 11/2/1
f 15/1/1 8/1/1 12/1/1
f 15/2/1 12/2/1 14/2/1
f 16/1/1 8/1/1 15/1/1
f 17/1/1 13/1/1 3/1/1
f 18/2/1 14/2/1 13/2/1
f 18/1/1 13/1/1 17/1/1
f 18/2/1 15/2/1 14/2/1
f 19/2/1 15/2/1 18/2/1
f 20/2/1 15/2/1 19/2/1
f 21/1/1 17/1/1 3/1/1
f 22/2/1 18/2/1 17/2/1
f 22/1/1 17/1/1 21/1/1
f 22/2/1 19/2/1 18/2/1
f 23/2/1 19/2/1 22/2/1
f 27/1/1 25/1/1 24/1/1
f 28/1/1 25/1/1 27/1/1
f 31/1/1 27/1/1 26/1/1
f 32/1/1 27/1/1 31/1/1
f 33/1/1 29/1/1 28/1/1
f 34/1/1 29/1/1 33/1/1
f 36/1/1 35/1/1 34/1/1
f 37/1/1 35/1/1 36/1/1
f 38/1/1 31/1/1 30/1/1
f 39/1/1 38/1/1 30/1/1
f 40/1/1 38/1/1 39/1/1
f 46/1/1 42/1/1 41/1/1
f 47/1/1 42/1/1 46/1/1
f 48/1/1 44/1/1 43/1/1
f 49/1/1 44/1/1 48/1/1
f 51/1/1 46/1/1 45/1/1
f 52/1/1 46/1/1 51/1/1
f 53/1/1 50/1/1 49/1/1
f 54/1/1 50/1/1 53/1/1
f 59/1/1 56/1/1 55/1/1
f 60/1/1 56/1/1 59/1/1
f 61/1/1 58/1/1 57/1/1
f 62/1/1 58/1/1 61/1/1
f 66/1/1 64/1/1 63/1/1
f 67/1/1 64/1/1 66/1/1
f 68/1/1 64/1/1 67/1/1
f 69/1/1 64/1/1 68/1/1
f 70/1/1 66/1/1 65/1/1
f 70/1/1 67/1/1 66/1/1
f 71/2/1 68/2/1 67/2/1
f 71/1/1 67/1/1 70/1/1
f 72/1/1 69/1/1 68/1/1
f 72/2/1 68/2/1 71/2/1
f 73/1/1 69/1/1 72/1/1
f 74/1/1 70/1/1 65/1/1
f 75/2/1 71/2/1 70/2/1
f 75/1/1 70/1/1 74/1/1
f 75/2/1 72/2/1 71/2/1
f 76/2/1 72/2/1 75/2/1
f 77/1/1 74/1/1 65/1/1
f 78/1/1 74/1/1 77/1/1
f 79/1/2 80/1/2 82/1/2
f 82/1/2 80/1/2 83/1/2
f 83/1/2 80/1/2 84/1/2
f 84/1/2 80/1/2 85/1/2
f 81/1/2 82/1/2 87/1/2
f 82/1/2 83/1/2 87/1/2
f 83/2/2 84/2/2 88/2/2
f 87/1/2 83/1/2 88/1/2
f 85/1/2 86/1/2 89/1/2
f 88/2/2 84/2/2 89/2/2
f 84/1/2 85/1/2 89/1/2
f 89/1/2 86/1/2 90/1/2
f 90/1/2 86/1/2 91/1/2
f 81/1/2 87/1/2 92/1/2
f 87/2/2 88/2/2 93/2/2
f 92/1/2 87/1/2 93/1/2
f 88/2/2 89/2/2 93/2/2
f 89/2/2 90/2/2 93/2/2
f 90/1/2 91/1/2 94/1/2
f 93/2/2 90/2/2 94/2/2
f 94/1/2 91/1/2 95/1/2
f 81/1/2 92/1/2 96/1/2
f 92/2/2 93/2/2 97/2/2
f 96/1/2 92/1/2 97/1/2
f 93/2/2 94/2/2 97/2/2
f 97/2/2 94/2/2 98/2/2
f 98/2/2 94/2/2 99/2/2
f 81/1/2 96/1/2 100/1/2
f 96/2/2 97/2/2 101/2/2
f 100/1/2 96/1/2 101/1/2
f 97/2/2 98/2/2 101/2/2
f 101/2/2 98/2/2 102/2/2
f 103/1/2 104/1/2 107/1/2
f 107/1/2 104/1/2 108/1/2
f 105/1/2 106/1/2 109/1/2
f 109/1/2 106/1/2 110/1/2
f 111/1/2 112/1/2 113/1/2
f 113/1/2 112/1/2 114/1/2
f 115/1/2 116/1/2 117/1/2
f 117/1/2 116/1/2 118/1/2
f 119/1/2 120/1/2 124/1/2
f 124/1/2 120/1/2 125/1/2
f 121/1/2 122/1/2 126/1/2
f 126/1/2 122/1/2 127/1/2
f 123/1/2 124/1/2 129/1/2
f 129/1/2 124/1/2 130/1/2
f 127/1/2 128/1/2 131/1/2
f 131/1/2 128/1/2 132/1/2
f 133/2/2 134/2/2 135/2/2
f 135/2/2 134/2/2 136/2/2
f 137/1/2 138/1/2 140/1/2
f 140/1/2 138/1/2 141/1/2
f 139/1/2 140/1/2 144/1/2
f 144/1/2 140/1/2 145/1/2
f 141/1/2 142/1/2 146/1/2
f 146/1/2 142/1/2 147/1/2
f 143/1/2 144/1/2 148/1/2
f 148/1/2 144/1/2 149/1/2
f 150/1/2 151/1/2 153/1/2
f 153/1/2 151/1/2 154/1/2
f 154/1/2 151/1/2 155/1/2
f 152/1/2 153/1/2 156/1/2
f 153/1/2 154/1/2 156/1/2
f 154/2/2 155/2/2 157/2/2
f 156/1/2 154/1/2 157/1/2
f 155/1/2 151/1/2 158/1/2
f 157/2/2 155/2/2 158/2/2
f 158/1/2 151/1/2 159/1/2
f 152/1/2 156/1/2 160/1/2
f 156/2/2 157/2/2 161/2/2
f 160/1/2 156/1/2 161/1/2
f 157/2/2 158/2/2 161/2/2
f 161/2/2 158/2/2 162/2/2
f 152/1/2 160/1/2 163/1/2
f 163/1/2 160/1/2 164/1/2
f 168/1/3 166/1/3 165/1/3
f 169/1/3 166/1/3 168/1/3
f 170/1/3 166/1/3 169/1/3
f 171/1/3 166/1/3 170/1/3
f 172/1/3 168/1/3 167/1/3
f 172/1/3 169/1/3 168/1/3
f 173/2/3 170/2/3 169/2/3
f 173/1/3 169/1/3 172/1/3
f 174/1/3 172/1/3 167/1/3
f 175/2/3 173/2/3 172/2/3
f 175/1/3 172/1/3 174/1/3
f 176/1/3 174/1/3 167/1/3
f 177/2/3 175/2/3 174/2/3
f 177/1/3 174/1/3 176/1/3
f 178/1/3 176/1/3 167/1/3
f 178/2/3 177/2/3 176/2/3
f 179/2/3 175/2/3 177/2/3
f 179/2/3 177/2/3 178/2/3
f 180/1/3 179/1/3 178/1/3
f 180/2/3 175/2/3 179/2/3
f 181/2/3 173/2/3 175/2/3
f 181/2/3 175/2/3 180/2/3
f 182/1/3 181/1/3 180/1/3
f 182/2/3 173/2/3 181/2/3
f 183/2/3 170/2/3 173/2/3
f 183/2/3 173/2/3 182/2/3
f 184/1/3 182/1/3 180/1/3
f 184/1/3 180/1/3 178/1/3
f 184/1/3 183/1/3 182/1/3
f 184/1/3 178/1/3 167/1/3
f 185/1/3 183/1/3 184/1/3
f 186/2/3 170/2/3 183/2/3
f 186/1/3 183/1/3 185/1/3
f 187/2/3 170/2/3 186/2/3
f 188/1/3 186/1/3 185/1/3
f 189/1/3 186/1/3 188/1/3
f 193/1/3 191/1/3 190/1/3
f 194/1/3 191/1/3 193/1/3
f 196/1/3 193/1/3 192/1/3
f 197/1/3 193/1/3 196/1/3
f 198/1/3 196/1/3 195/1/3
f 199/1/3 196/1/3 198/1/3
f 201/1/3 200/1/3 199/1/3
f 202/1/3 200/1/3 201/1/3
f 204/1/3 203/1/3 202/1/3
f 205/1/3 203/1/3 204/1/3
f 209/1/3 207/1/3 206/1/3
f 210/1/3 207/1/3 209/1/3
f 211/1/3 209/1/3 208/1/3
f 212/1/3 209/1/3 211/1/3
f 215/1/3 214/1/3 213/1/3
f 216/1/3 214/1/3 215/1/3
f 218/1/3 217/1/3 216/1/3
f 219/1/3 217/1/3 218/1/3
f 222/1/3 221/1/3 220/1/3
f 223/1/3 221/1/3 222/1/3
f 226/1/3 225/1/3 224/1/3
f 227/1/3 225/1/3 226/1/3
f 231/1/3 229/1/3 228/1/3
f 232/1/3 229/1/3 231/1/3
f 232/1/3 231/1/3 230/1/3
f 233/1/3 229/1/3 232/1/3
f 234/1/3 232/1/3 230/1/3
f 234/2/3 233/2/3 232/2/3
f 235/2/3 233/2/3 234/2/3
f 236/1/3 234/1/3 230/1/3
f 236/1/3 235/1/3 234/1/3
f 237/1/3 235/1/3 236/1/3
f 238/1/3 236/1/3 230/1/3
f 239/1/3 236/1/3 238/1/3
f 240/1/4 241/1/4 244/1/4
f 241/1/4 242/1/4 244/1/4
f 244/1/4 242/1/4 245/1/4
f 245/1/4 242/1/4 246/1/4
f 246/1/4 242/1/4 247/1/4
f 243/1/4 244/1/4 248/1/4
f 244/1/4 245/1/4 248/1/4
f 245/2/4 246/2/4 249/2/4
f 248/1/4 245/1/4 249/1/4
f 243/1/4 248/1/4 250/1/4
f 248/2/4 249/2/4 251/2/4
f 250/1/4 248/1/4 251/1/4
f 243/1/4 250/1/4 252/1/4
f 250/2/4 251/2/4 253/2/4
f 252/1/4 250/1/4 253/1/4
f 243/1/4 252/1/4 254/1/4
f 252/2/4 253/2/4 254/2/4
f 253/2/4 251/2/4 255/2/4
f 254/2/4 253/2/4 255/2/4
f 254/1/4 255/1/4 256/1/4
f 255/2/4 251/2/4 256/2/4
f 251/2/4 249/2/4 257/2/4
f 256/2/4 251/2/4 257/2/4
f 256/1/4 257/1/4 258/1/4
f 257/2/4 249/2/4 258/2/4
f 249/2/4 246/2/4 259/2/4
f 258/2/4 249/2/4 259/2/4
f 256/1/4 258/1/4 260/1/4
f 254/1/4 256/1/4 260/1/4
f 258/1/4 259/1/4 260/1/4
f 243/1/4 254/1/4 260/1/4
f 260/1/4 259/1/4 261/1/4
f 259/2/4 246/2/4 262/2/4
f 261/1/4 259/1/4 262/1/4
f 262/2/4 246/2/4 263/2/4
f 261/1/4 262/1/4 264/1/4
f 264/1/4 262/1/4 265/1/4
f 266/1/4 267/1/4 268/1/4
f 268/1/4 267/1/4 269/1/4
f 270/1/4 271/1/4 272/1/4
f 272/1/4 271/1/4 273/1/4
f 274/1/4 275/1/4 276/1/4
f 276/1/4 275/1/4 277/1/4
f 278/2/4 279/2/4 280/2/4
f 280/2/4 279/2/4 281/2/4
f 282/2/4 283/2/4 284/2/4
f 284/2/4 283/2/4 285/2/4
f 286/2/4 287/2/4 288/2/4
f 288/2/4 287/2/4 289/2/4
f 290/1/4 291/1/4 293/1/4
f 293/1/4 291/1/4 294/1/4
f 292/1/4 293/1/4 295/1/4
f 295/1/4 293/1/4 296/1/4
f 297/1/4 298/1/4 299/1/4
f 299/1/4 298/1/4 300/1/4
f 300/1/4 301/1/4 303/1/4
f 301/1/4 302/1/4 303/1/4
f 303/1/4 302/1/4 304/1/4
f 305/1/4 306/1/4 308/1/4
f 308/1/4 306/1/4 309/1/4
f 309/1/4 306/1/4 310/1/4
f 307/1/4 308/1/4 312/1/4
f 312/1/4 308/1/4 313/1/4
f 311/1/4 312/1/4 314/1/4
f 314/1/4 312/1/4 315/1/4
f 315/1/4 316/1/4 317/1/4
f 317/1/4 316/1/4 318/1/4
f 319/1/4 320/1/4 322/1/4
f 322/1/4 320/1/4 323/1/4
f 321/1/4 322/1/4 323/1/4
f 323/1/4 320/1/4 324/1/4
f 321/1/4 323/1/4 325/1/4
f 323/2/4 324/2/4 325/2/4
f 325/2/4 324/2/4 326/2/4
f 321/1/4 325/1/4 327/1/4
f 325/1/4 326/1/4 327/1/4
f 327/1/4 326/1/4 328/1/4
f 321/1/4 327/1/4 329/1/4
f 329/1/4 327/1/4 330/1/4
f 334/1/5 332/1/5 331/1/5
f 335/1/5 332/1/5 334/1/5
f 337/1/5 334/1/5 333/1/5
f 337/1/5 336/1/5 335/1/5
f 337/1/5 335/1/5 334/1/5
f 338/1/5 336/1/5 337/1/5
f 339/1/5 336/1/5 338/1/5
f 340/1/5 336/1/5 339/1/5
f 341/1/5 339/1/5 338/1/5
f 342/1/5 339/1/5 341/1/5
f 346/1/5 344/1/5 343/1/5
f 347/1/5 344/1/5 346/1/5
f 350/1/5 346/1/5 345/1/5
f 351/1/5 346/1/5 350/1/5
f 352/1/5 348/1/5 347/1/5
f 353/1/5 348/1/5 352/1/5
f 355/1/5 350/1/5 349/1/5
f 356/1/5 350/1/5 355/1/5
f 359/1/5 354/1/5 353/1/5
f 360/1/5 354/1/5 359/1/5
f 361/1/5 357/1/5 356/1/5
f 362/1/5 357/1/5 361/1/5
f 363/1/5 359/1/5 358/1/5
f 364/1/5 359/1/5 363/1/5
f 365/1/5 363/1/5 362/1/5
f 366/1/5 363/1/5 365/1/5
f 372/1/5 368/1/5 367/1/5
f 373/1/5 368/1/5 372/1/5
f 374/1/5 370/1/5 369/1/5
f 375/1/5 370/1/5 374/1/5
f 377/1/5 372/1/5 371/1/5
f 378/1/5 372/1/5 377/1/5
f 379/1/5 376/1/5 375/1/5
f 380/1/5 376/1/5 379/1/5
f 383/1/5 382/1/5 381/1/5
f 384/1/5 382/1/5 383/1/5
f 386/1/5 385/1/5 384/1/5
f 387/1/5 385/1/5 386/1/5
f 388/1/6 389/1/6 391/1/6
f 391/1/6 389/1/6 392/1/6
f 390/1/6 391/1/6 394/1/6
f 392/1/6 393/1/6 394/1/6
f 391/1/6 392/1/6 394/1/6
f 394/1/6 393/1/6 395/1/6
f 395/1/6 393/1/6 396/1/6
f 396/1/6 393/1/6 397/1/6
f 395/1/6 396/1/6 398/1/6
f 398/1/6 396/1/6 399/1/6
f 400/1/6 401/1/6 404/1/6
f 404/1/6 401/1/6 405/1/6
f 402/1/6 403/1/6 406/1/6
f 406/1/6 403/1/6 407/1/6
f 408/1/6 409/1/6 412/1/6
f 412/1/6 409/1/6 413/1/6
f 410/1/6 411/1/6 415/1/6
f 415/1/6 411/1/6 416/1/6
f 414/1/6 415/1/6 417/1/6
f 417/1/6 415/1/6 418/1/6
f 419/1/6 420/1/6 421/1/6
f 421/1/6 420/1/6 422/1/6
f 423/1/6 424/1/6 427/1/6
f 424/2/6 425/2/6 428/2/6
f 427/1/6 424/1/6 428/1/6
f 425/1/6 426/1/6 429/1/6
f 428/2/6 425/2/6 429/2/6
f 429/1/6 426/1/6 430/1/6
f 431/1/6 432/1/6 433/1/6
f 433/1/6 432/1/6 434/1/6
f 433/2/6 434/2/6 435/2/6
f 435/2/6 434/2/6 436/2/6
f 437/1/6 438/1/6 439/1/6
f 439/1/6 438/1/6 440/1/6
f 441/1/6 442/1/6 443/1/6
f 443/1/6 442/1/6 444/1/6
f 444/1/6 445/1/6 446/1/6
f 446/1/6 445/1/6 447/1/6
f 448/2/6 449/2/6 450/2/6
f 450/2/6 449/2/6 451/2/6
f 452/2/6 453/2/6 456/2/6
f 456/2/6 453/2/6 457/2/6
f 454/1/6 455/1/6 458/1/6
f 458/1/6 455/1/6 459/1/6
f 458/2/6 459/2/6 460/2/6
f 460/2/6 459/2/6 461/2/6
f 462/1/6 463/1/6 464/1/6
f 464/1/6 463/1/6 465/1/6
