# MagicaVoxel @ Ephtracy

# group
o 

# material
mtllib grass_checkered.mtl
usemtl palette

# normals
vn -1 0 0
vn 1 0 0
vn 0 0 1
vn 0 0 -1
vn 0 -1 0
vn 0 1 0

# texcoords
vt 0.232422 0.5
vt 0.748047 0.5
vt 0.771484 0.5

# verts
v 0 0 0
v 0 0 -1
v 0 0.3 0
v 0 0.3 -0.2
v 0 0.3 -0.4
v 0 0.3 -0.6
v 0 0.3 -0.8
v 0 0.3 -1
v 0 0.4 0
v 0 0.4 -0.2
v 0 0.4 -0.4
v 0 0.4 -0.6
v 0 0.4 -0.8
v 0 0.4 -1
v 1 0 0
v 1 0 -1
v 1 0.3 0
v 1 0.3 -0.2
v 1 0.3 -0.4
v 1 0.3 -0.6
v 1 0.3 -0.8
v 1 0.3 -1
v 1 0.4 0
v 1 0.4 -0.2
v 1 0.4 -0.4
v 1 0.4 -0.6
v 1 0.4 -0.8
v 1 0.4 -1
v 0 0 0
v 0 0.3 0
v 0 0.4 0
v 0.2 0.3 0
v 0.2 0.4 0
v 0.4 0.3 0
v 0.4 0.4 0
v 0.6 0.3 0
v 0.6 0.4 0
v 0.8 0.3 0
v 0.8 0.4 0
v 1 0 0
v 1 0.3 0
v 1 0.4 0
v 0 0 -1
v 0 0.3 -1
v 0 0.4 -1
v 0.2 0.3 -1
v 0.2 0.4 -1
v 0.4 0.3 -1
v 0.4 0.4 -1
v 0.6 0.3 -1
v 0.6 0.4 -1
v 0.8 0.3 -1
v 0.8 0.4 -1
v 1 0 -1
v 1 0.3 -1
v 1 0.4 -1
v 0 0 0
v 1 0 0
v 0 0 -1
v 1 0 -1
v 0 0.4 0
v 0.2 0.4 0
v 0.4 0.4 0
v 0.6 0.4 0
v 0.8 0.4 0
v 1 0.4 0
v 0 0.4 -0.2
v 0.2 0.4 -0.2
v 0.4 0.4 -0.2
v 0.6 0.4 -0.2
v 0.8 0.4 -0.2
v 1 0.4 -0.2
v 0 0.4 -0.4
v 0.2 0.4 -0.4
v 0.4 0.4 -0.4
v 0.6 0.4 -0.4
v 0.8 0.4 -0.4
v 1 0.4 -0.4
v 0 0.4 -0.6
v 0.2 0.4 -0.6
v 0.4 0.4 -0.6
v 0.6 0.4 -0.6
v 0.8 0.4 -0.6
v 1 0.4 -0.6
v 0 0.4 -0.8
v 0.2 0.4 -0.8
v 0.4 0.4 -0.8
v 0.6 0.4 -0.8
v 0.8 0.4 -0.8
v 1 0.4 -0.8
v 0 0.4 -1
v 0.2 0.4 -1
v 0.4 0.4 -1
v 0.6 0.4 -1
v 0.8 0.4 -1
v 1 0.4 -1

# faces
f 3/1/1 2/1/1 1/1/1
f 4/1/1 2/1/1 3/1/1
f 5/1/1 2/1/1 4/1/1
f 6/1/1 2/1/1 5/1/1
f 7/1/1 2/1/1 6/1/1
f 8/1/1 2/1/1 7/1/1
f 9/3/1 4/3/1 3/3/1
f 10/2/1 5/2/1 4/2/1
f 10/3/1 4/3/1 9/3/1
f 11/3/1 6/3/1 5/3/1
f 11/2/1 5/2/1 10/2/1
f 12/2/1 7/2/1 6/2/1
f 12/3/1 6/3/1 11/3/1
f 13/3/1 8/3/1 7/3/1
f 13/2/1 7/2/1 12/2/1
f 14/3/1 8/3/1 13/3/1
f 15/1/2 16/1/2 17/1/2
f 17/1/2 16/1/2 18/1/2
f 18/1/2 16/1/2 19/1/2
f 19/1/2 16/1/2 20/1/2
f 20/1/2 16/1/2 21/1/2
f 21/1/2 16/1/2 22/1/2
f 17/3/2 18/3/2 23/3/2
f 18/2/2 19/2/2 24/2/2
f 23/3/2 18/3/2 24/3/2
f 19/3/2 20/3/2 25/3/2
f 24/2/2 19/2/2 25/2/2
f 20/2/2 21/2/2 26/2/2
f 25/3/2 20/3/2 26/3/2
f 21/3/2 22/3/2 27/3/2
f 26/2/2 21/2/2 27/2/2
f 27/3/2 22/3/2 28/3/2
f 32/1/3 30/1/3 29/1/3
f 32/3/3 31/3/3 30/3/3
f 33/3/3 31/3/3 32/3/3
f 34/1/3 32/1/3 29/1/3
f 34/2/3 33/2/3 32/2/3
f 35/2/3 33/2/3 34/2/3
f 36/1/3 34/1/3 29/1/3
f 36/3/3 35/3/3 34/3/3
f 37/3/3 35/3/3 36/3/3
f 38/1/3 36/1/3 29/1/3
f 38/2/3 37/2/3 36/2/3
f 39/2/3 37/2/3 38/2/3
f 40/1/3 38/1/3 29/1/3
f 41/3/3 39/3/3 38/3/3
f 41/1/3 38/1/3 40/1/3
f 42/3/3 39/3/3 41/3/3
f 43/1/4 44/1/4 46/1/4
f 44/3/4 45/3/4 46/3/4
f 46/3/4 45/3/4 47/3/4
f 43/1/4 46/1/4 48/1/4
f 46/2/4 47/2/4 48/2/4
f 48/2/4 47/2/4 49/2/4
f 43/1/4 48/1/4 50/1/4
f 48/3/4 49/3/4 50/3/4
f 50/3/4 49/3/4 51/3/4
f 43/1/4 50/1/4 52/1/4
f 50/2/4 51/2/4 52/2/4
f 52/2/4 51/2/4 53/2/4
f 43/1/4 52/1/4 54/1/4
f 52/3/4 53/3/4 55/3/4
f 54/1/4 52/1/4 55/1/4
f 55/3/4 53/3/4 56/3/4
f 59/1/5 58/1/5 57/1/5
f 60/1/5 58/1/5 59/1/5
f 61/3/6 62/3/6 67/3/6
f 62/2/6 63/2/6 68/2/6
f 67/3/6 62/3/6 68/3/6
f 63/3/6 64/3/6 69/3/6
f 68/2/6 63/2/6 69/2/6
f 64/2/6 65/2/6 70/2/6
f 69/3/6 64/3/6 70/3/6
f 65/3/6 66/3/6 71/3/6
f 70/2/6 65/2/6 71/2/6
f 71/3/6 66/3/6 72/3/6
f 67/2/6 68/2/6 73/2/6
f 68/3/6 69/3/6 74/3/6
f 73/2/6 68/2/6 74/2/6
f 69/2/6 70/2/6 75/2/6
f 74/3/6 69/3/6 75/3/6
f 70/3/6 71/3/6 76/3/6
f 75/2/6 70/2/6 76/2/6
f 71/2/6 72/2/6 77/2/6
f 76/3/6 71/3/6 77/3/6
f 77/2/6 72/2/6 78/2/6
f 73/3/6 74/3/6 79/3/6
f 74/2/6 75/2/6 80/2/6
f 79/3/6 74/3/6 80/3/6
f 75/3/6 76/3/6 81/3/6
f 80/2/6 75/2/6 81/2/6
f 76/2/6 77/2/6 82/2/6
f 81/3/6 76/3/6 82/3/6
f 77/3/6 78/3/6 83/3/6
f 82/2/6 77/2/6 83/2/6
f 83/3/6 78/3/6 84/3/6
f 79/2/6 80/2/6 85/2/6
f 80/3/6 81/3/6 86/3/6
f 85/2/6 80/2/6 86/2/6
f 81/2/6 82/2/6 87/2/6
f 86/3/6 81/3/6 87/3/6
f 82/3/6 83/3/6 88/3/6
f 87/2/6 82/2/6 88/2/6
f 83/2/6 84/2/6 89/2/6
f 88/3/6 83/3/6 89/3/6
f 89/2/6 84/2/6 90/2/6
f 85/3/6 86/3/6 91/3/6
f 86/2/6 87/2/6 92/2/6
f 91/3/6 86/3/6 92/3/6
f 87/3/6 88/3/6 93/3/6
f 92/2/6 87/2/6 93/2/6
f 88/2/6 89/2/6 94/2/6
f 93/3/6 88/3/6 94/3/6
f 89/3/6 90/3/6 95/3/6
f 94/2/6 89/2/6 95/2/6
f 95/3/6 90/3/6 96/3/6
