# MagicaVoxel @ Ephtracy

# group
o 

# material
mtllib grass_pattern.mtl
usemtl palette

# normals
vn -1 0 0
vn 1 0 0
vn 0 0 1
vn 0 0 -1
vn 0 -1 0
vn 0 1 0

# texcoords
vt 0.232422 0.5
vt 0.748047 0.5
vt 0.771484 0.5

# verts
v 0 0 0
v 0 0 -1
v 0 0.3 0
v 0 0.3 -0.1
v 0 0.3 -0.2
v 0 0.3 -0.3
v 0 0.3 -0.4
v 0 0.3 -0.5
v 0 0.3 -0.6
v 0 0.3 -0.7
v 0 0.3 -0.8
v 0 0.3 -0.9
v 0 0.3 -1
v 0 0.4 0
v 0 0.4 -0.1
v 0 0.4 -0.2
v 0 0.4 -0.3
v 0 0.4 -0.4
v 0 0.4 -0.5
v 0 0.4 -0.6
v 0 0.4 -0.7
v 0 0.4 -0.8
v 0 0.4 -0.9
v 0 0.4 -1
v 1 0 0
v 1 0 -1
v 1 0.3 0
v 1 0.3 -0.1
v 1 0.3 -0.2
v 1 0.3 -0.3
v 1 0.3 -0.4
v 1 0.3 -0.5
v 1 0.3 -0.6
v 1 0.3 -0.7
v 1 0.3 -0.8
v 1 0.3 -0.9
v 1 0.3 -1
v 1 0.4 0
v 1 0.4 -0.1
v 1 0.4 -0.2
v 1 0.4 -0.3
v 1 0.4 -0.4
v 1 0.4 -0.5
v 1 0.4 -0.6
v 1 0.4 -0.7
v 1 0.4 -0.8
v 1 0.4 -0.9
v 1 0.4 -1
v 0 0 0
v 0 0.3 0
v 0 0.4 0
v 0.1 0.3 0
v 0.1 0.4 0
v 0.2 0.3 0
v 0.2 0.4 0
v 0.3 0.3 0
v 0.3 0.4 0
v 0.4 0.3 0
v 0.4 0.4 0
v 0.5 0.3 0
v 0.5 0.4 0
v 0.6 0.3 0
v 0.6 0.4 0
v 0.7 0.3 0
v 0.7 0.4 0
v 0.8 0.3 0
v 0.8 0.4 0
v 0.9 0.3 0
v 0.9 0.4 0
v 1 0 0
v 1 0.3 0
v 1 0.4 0
v 0 0 -1
v 0 0.3 -1
v 0 0.4 -1
v 0.1 0.3 -1
v 0.1 0.4 -1
v 0.2 0.3 -1
v 0.2 0.4 -1
v 0.3 0.3 -1
v 0.3 0.4 -1
v 0.4 0.3 -1
v 0.4 0.4 -1
v 0.5 0.3 -1
v 0.5 0.4 -1
v 0.6 0.3 -1
v 0.6 0.4 -1
v 0.7 0.3 -1
v 0.7 0.4 -1
v 0.8 0.3 -1
v 0.8 0.4 -1
v 0.9 0.3 -1
v 0.9 0.4 -1
v 1 0 -1
v 1 0.3 -1
v 1 0.4 -1
v 0 0 0
v 1 0 0
v 0 0 -1
v 1 0 -1
v 0 0.4 0
v 0.1 0.4 0
v 0.2 0.4 0
v 0.3 0.4 0
v 0.4 0.4 0
v 0.5 0.4 0
v 0.6 0.4 0
v 0.7 0.4 0
v 0.8 0.4 0
v 0.9 0.4 0
v 1 0.4 0
v 0 0.4 -0.1
v 0.1 0.4 -0.1
v 0.2 0.4 -0.1
v 0.3 0.4 -0.1
v 0.4 0.4 -0.1
v 0.5 0.4 -0.1
v 0.6 0.4 -0.1
v 0.7 0.4 -0.1
v 0.8 0.4 -0.1
v 0.9 0.4 -0.1
v 1 0.4 -0.1
v 0 0.4 -0.2
v 0.1 0.4 -0.2
v 0.2 0.4 -0.2
v 0.3 0.4 -0.2
v 0.4 0.4 -0.2
v 0.5 0.4 -0.2
v 0.6 0.4 -0.2
v 0.7 0.4 -0.2
v 0.8 0.4 -0.2
v 0.9 0.4 -0.2
v 1 0.4 -0.2
v 0 0.4 -0.3
v 0.1 0.4 -0.3
v 0.2 0.4 -0.3
v 0.3 0.4 -0.3
v 0.4 0.4 -0.3
v 0.5 0.4 -0.3
v 0.6 0.4 -0.3
v 0.7 0.4 -0.3
v 0.8 0.4 -0.3
v 0.9 0.4 -0.3
v 1 0.4 -0.3
v 0 0.4 -0.4
v 0.1 0.4 -0.4
v 0.2 0.4 -0.4
v 0.3 0.4 -0.4
v 0.4 0.4 -0.4
v 0.5 0.4 -0.4
v 0.6 0.4 -0.4
v 0.7 0.4 -0.4
v 0.8 0.4 -0.4
v 0.9 0.4 -0.4
v 1 0.4 -0.4
v 0 0.4 -0.5
v 0.1 0.4 -0.5
v 0.2 0.4 -0.5
v 0.3 0.4 -0.5
v 0.4 0.4 -0.5
v 0.5 0.4 -0.5
v 0.6 0.4 -0.5
v 0.7 0.4 -0.5
v 0.8 0.4 -0.5
v 0.9 0.4 -0.5
v 1 0.4 -0.5
v 0 0.4 -0.6
v 0.1 0.4 -0.6
v 0.2 0.4 -0.6
v 0.3 0.4 -0.6
v 0.4 0.4 -0.6
v 0.5 0.4 -0.6
v 0.6 0.4 -0.6
v 0.7 0.4 -0.6
v 0.8 0.4 -0.6
v 0.9 0.4 -0.6
v 1 0.4 -0.6
v 0 0.4 -0.7
v 0.1 0.4 -0.7
v 0.2 0.4 -0.7
v 0.3 0.4 -0.7
v 0.4 0.4 -0.7
v 0.5 0.4 -0.7
v 0.6 0.4 -0.7
v 0.7 0.4 -0.7
v 0.8 0.4 -0.7
v 0.9 0.4 -0.7
v 1 0.4 -0.7
v 0 0.4 -0.8
v 0.1 0.4 -0.8
v 0.2 0.4 -0.8
v 0.3 0.4 -0.8
v 0.4 0.4 -0.8
v 0.5 0.4 -0.8
v 0.6 0.4 -0.8
v 0.7 0.4 -0.8
v 0.8 0.4 -0.8
v 0.9 0.4 -0.8
v 1 0.4 -0.8
v 0 0.4 -0.9
v 0.1 0.4 -0.9
v 0.2 0.4 -0.9
v 0.3 0.4 -0.9
v 0.4 0.4 -0.9
v 0.5 0.4 -0.9
v 0.6 0.4 -0.9
v 0.7 0.4 -0.9
v 0.8 0.4 -0.9
v 0.9 0.4 -0.9
v 1 0.4 -0.9
v 0 0.4 -1
v 0.1 0.4 -1
v 0.2 0.4 -1
v 0.3 0.4 -1
v 0.4 0.4 -1
v 0.5 0.4 -1
v 0.6 0.4 -1
v 0.7 0.4 -1
v 0.8 0.4 -1
v 0.9 0.4 -1
v 1 0.4 -1

# faces
f 3/1/1 2/1/1 1/1/1
f 4/1/1 2/1/1 3/1/1
f 5/1/1 2/1/1 4/1/1
f 6/1/1 2/1/1 5/1/1
f 7/1/1 2/1/1 6/1/1
f 8/1/1 2/1/1 7/1/1
f 9/1/1 2/1/1 8/1/1
f 10/1/1 2/1/1 9/1/1
f 11/1/1 2/1/1 10/1/1
f 12/1/1 2/1/1 11/1/1
f 13/1/1 2/1/1 12/1/1
f 14/3/1 4/3/1 3/3/1
f 15/2/1 5/2/1 4/2/1
f 15/3/1 4/3/1 14/3/1
f 16/3/1 6/3/1 5/3/1
f 16/2/1 5/2/1 15/2/1
f 17/2/1 7/2/1 6/2/1
f 17/3/1 6/3/1 16/3/1
f 18/3/1 8/3/1 7/3/1
f 18/2/1 7/2/1 17/2/1
f 19/2/1 9/2/1 8/2/1
f 19/3/1 8/3/1 18/3/1
f 20/3/1 10/3/1 9/3/1
f 20/2/1 9/2/1 19/2/1
f 21/2/1 11/2/1 10/2/1
f 21/3/1 10/3/1 20/3/1
f 22/3/1 12/3/1 11/3/1
f 22/2/1 11/2/1 21/2/1
f 23/2/1 13/2/1 12/2/1
f 23/3/1 12/3/1 22/3/1
f 24/2/1 13/2/1 23/2/1
f 25/1/2 26/1/2 27/1/2
f 27/1/2 26/1/2 28/1/2
f 28/1/2 26/1/2 29/1/2
f 29/1/2 26/1/2 30/1/2
f 30/1/2 26/1/2 31/1/2
f 31/1/2 26/1/2 32/1/2
f 32/1/2 26/1/2 33/1/2
f 33/1/2 26/1/2 34/1/2
f 34/1/2 26/1/2 35/1/2
f 35/1/2 26/1/2 36/1/2
f 36/1/2 26/1/2 37/1/2
f 27/2/2 28/2/2 38/2/2
f 28/3/2 29/3/2 39/3/2
f 38/2/2 28/2/2 39/2/2
f 29/2/2 30/2/2 40/2/2
f 39/3/2 29/3/2 40/3/2
f 30/3/2 31/3/2 41/3/2
f 40/2/2 30/2/2 41/2/2
f 31/2/2 32/2/2 42/2/2
f 41/3/2 31/3/2 42/3/2
f 32/3/2 33/3/2 43/3/2
f 42/2/2 32/2/2 43/2/2
f 33/2/2 34/2/2 44/2/2
f 43/3/2 33/3/2 44/3/2
f 34/3/2 35/3/2 45/3/2
f 44/2/2 34/2/2 45/2/2
f 35/2/2 36/2/2 46/2/2
f 45/3/2 35/3/2 46/3/2
f 36/3/2 37/3/2 47/3/2
f 46/2/2 36/2/2 47/2/2
f 47/3/2 37/3/2 48/3/2
f 52/1/3 50/1/3 49/1/3
f 52/3/3 51/3/3 50/3/3
f 53/3/3 51/3/3 52/3/3
f 54/1/3 52/1/3 49/1/3
f 54/2/3 53/2/3 52/2/3
f 55/2/3 53/2/3 54/2/3
f 56/1/3 54/1/3 49/1/3
f 56/3/3 55/3/3 54/3/3
f 57/3/3 55/3/3 56/3/3
f 58/1/3 56/1/3 49/1/3
f 58/2/3 57/2/3 56/2/3
f 59/2/3 57/2/3 58/2/3
f 60/1/3 58/1/3 49/1/3
f 60/3/3 59/3/3 58/3/3
f 61/3/3 59/3/3 60/3/3
f 62/1/3 60/1/3 49/1/3
f 62/2/3 61/2/3 60/2/3
f 63/2/3 61/2/3 62/2/3
f 64/1/3 62/1/3 49/1/3
f 64/3/3 63/3/3 62/3/3
f 65/3/3 63/3/3 64/3/3
f 66/1/3 64/1/3 49/1/3
f 66/2/3 65/2/3 64/2/3
f 67/2/3 65/2/3 66/2/3
f 68/1/3 66/1/3 49/1/3
f 68/3/3 67/3/3 66/3/3
f 69/3/3 67/3/3 68/3/3
f 70/1/3 68/1/3 49/1/3
f 71/2/3 69/2/3 68/2/3
f 71/1/3 68/1/3 70/1/3
f 72/2/3 69/2/3 71/2/3
f 73/1/4 74/1/4 76/1/4
f 74/2/4 75/2/4 76/2/4
f 76/2/4 75/2/4 77/2/4
f 73/1/4 76/1/4 78/1/4
f 76/3/4 77/3/4 78/3/4
f 78/3/4 77/3/4 79/3/4
f 73/1/4 78/1/4 80/1/4
f 78/2/4 79/2/4 80/2/4
f 80/2/4 79/2/4 81/2/4
f 73/1/4 80/1/4 82/1/4
f 80/3/4 81/3/4 82/3/4
f 82/3/4 81/3/4 83/3/4
f 73/1/4 82/1/4 84/1/4
f 82/2/4 83/2/4 84/2/4
f 84/2/4 83/2/4 85/2/4
f 73/1/4 84/1/4 86/1/4
f 84/3/4 85/3/4 86/3/4
f 86/3/4 85/3/4 87/3/4
f 73/1/4 86/1/4 88/1/4
f 86/2/4 87/2/4 88/2/4
f 88/2/4 87/2/4 89/2/4
f 73/1/4 88/1/4 90/1/4
f 88/3/4 89/3/4 90/3/4
f 90/3/4 89/3/4 91/3/4
f 73/1/4 90/1/4 92/1/4
f 90/2/4 91/2/4 92/2/4
f 92/2/4 91/2/4 93/2/4
f 73/1/4 92/1/4 94/1/4
f 92/3/4 93/3/4 95/3/4
f 94/1/4 92/1/4 95/1/4
f 95/3/4 93/3/4 96/3/4
f 99/1/5 98/1/5 97/1/5
f 100/1/5 98/1/5 99/1/5
f 101/3/6 102/3/6 112/3/6
f 102/2/6 103/2/6 113/2/6
f 112/3/6 102/3/6 113/3/6
f 103/3/6 104/3/6 114/3/6
f 113/2/6 103/2/6 114/2/6
f 104/2/6 105/2/6 115/2/6
f 114/3/6 104/3/6 115/3/6
f 105/3/6 106/3/6 116/3/6
f 115/2/6 105/2/6 116/2/6
f 106/2/6 107/2/6 117/2/6
f 116/3/6 106/3/6 117/3/6
f 107/3/6 108/3/6 118/3/6
f 117/2/6 107/2/6 118/2/6
f 108/2/6 109/2/6 119/2/6
f 118/3/6 108/3/6 119/3/6
f 109/3/6 110/3/6 120/3/6
f 119/2/6 109/2/6 120/2/6
f 110/2/6 111/2/6 121/2/6
f 120/3/6 110/3/6 121/3/6
f 121/2/6 111/2/6 122/2/6
f 112/2/6 113/2/6 123/2/6
f 113/3/6 114/3/6 124/3/6
f 123/2/6 113/2/6 124/2/6
f 114/2/6 115/2/6 125/2/6
f 124/3/6 114/3/6 125/3/6
f 115/3/6 116/3/6 126/3/6
f 125/2/6 115/2/6 126/2/6
f 116/2/6 117/2/6 127/2/6
f 126/3/6 116/3/6 127/3/6
f 117/3/6 118/3/6 128/3/6
f 127/2/6 117/2/6 128/2/6
f 118/2/6 119/2/6 129/2/6
f 128/3/6 118/3/6 129/3/6
f 119/3/6 120/3/6 130/3/6
f 129/2/6 119/2/6 130/2/6
f 120/2/6 121/2/6 131/2/6
f 130/3/6 120/3/6 131/3/6
f 121/3/6 122/3/6 132/3/6
f 131/2/6 121/2/6 132/2/6
f 132/3/6 122/3/6 133/3/6
f 123/3/6 124/3/6 134/3/6
f 124/2/6 125/2/6 135/2/6
f 134/3/6 124/3/6 135/3/6
f 125/3/6 126/3/6 136/3/6
f 135/2/6 125/2/6 136/2/6
f 126/2/6 127/2/6 137/2/6
f 136/3/6 126/3/6 137/3/6
f 127/3/6 128/3/6 138/3/6
f 137/2/6 127/2/6 138/2/6
f 128/2/6 129/2/6 139/2/6
f 138/3/6 128/3/6 139/3/6
f 129/3/6 130/3/6 140/3/6
f 139/2/6 129/2/6 140/2/6
f 130/2/6 131/2/6 141/2/6
f 140/3/6 130/3/6 141/3/6
f 131/3/6 132/3/6 142/3/6
f 141/2/6 131/2/6 142/2/6
f 132/2/6 133/2/6 143/2/6
f 142/3/6 132/3/6 143/3/6
f 143/2/6 133/2/6 144/2/6
f 134/2/6 135/2/6 145/2/6
f 135/3/6 136/3/6 146/3/6
f 145/2/6 135/2/6 146/2/6
f 136/2/6 137/2/6 147/2/6
f 146/3/6 136/3/6 147/3/6
f 137/3/6 138/3/6 148/3/6
f 147/2/6 137/2/6 148/2/6
f 138/2/6 139/2/6 149/2/6
f 148/3/6 138/3/6 149/3/6
f 139/3/6 140/3/6 150/3/6
f 149/2/6 139/2/6 150/2/6
f 140/2/6 141/2/6 151/2/6
f 150/3/6 140/3/6 151/3/6
f 141/3/6 142/3/6 152/3/6
f 151/2/6 141/2/6 152/2/6
f 142/2/6 143/2/6 153/2/6
f 152/3/6 142/3/6 153/3/6
f 143/3/6 144/3/6 154/3/6
f 153/2/6 143/2/6 154/2/6
f 154/3/6 144/3/6 155/3/6
f 145/3/6 146/3/6 156/3/6
f 146/2/6 147/2/6 157/2/6
f 156/3/6 146/3/6 157/3/6
f 147/3/6 148/3/6 158/3/6
f 157/2/6 147/2/6 158/2/6
f 148/2/6 149/2/6 159/2/6
f 158/3/6 148/3/6 159/3/6
f 149/3/6 150/3/6 160/3/6
f 159/2/6 149/2/6 160/2/6
f 150/2/6 151/2/6 161/2/6
f 160/3/6 150/3/6 161/3/6
f 151/3/6 152/3/6 162/3/6
f 161/2/6 151/2/6 162/2/6
f 152/2/6 153/2/6 163/2/6
f 162/3/6 152/3/6 163/3/6
f 153/3/6 154/3/6 164/3/6
f 163/2/6 153/2/6 164/2/6
f 154/2/6 155/2/6 165/2/6
f 164/3/6 154/3/6 165/3/6
f 165/2/6 155/2/6 166/2/6
f 156/2/6 157/2/6 167/2/6
f 157/3/6 158/3/6 168/3/6
f 167/2/6 157/2/6 168/2/6
f 158/2/6 159/2/6 169/2/6
f 168/3/6 158/3/6 169/3/6
f 159/3/6 160/3/6 170/3/6
f 169/2/6 159/2/6 170/2/6
f 160/2/6 161/2/6 171/2/6
f 170/3/6 160/3/6 171/3/6
f 161/3/6 162/3/6 172/3/6
f 171/2/6 161/2/6 172/2/6
f 162/2/6 163/2/6 173/2/6
f 172/3/6 162/3/6 173/3/6
f 163/3/6 164/3/6 174/3/6
f 173/2/6 163/2/6 174/2/6
f 164/2/6 165/2/6 175/2/6
f 174/3/6 164/3/6 175/3/6
f 165/3/6 166/3/6 176/3/6
f 175/2/6 165/2/6 176/2/6
f 176/3/6 166/3/6 177/3/6
f 167/3/6 168/3/6 178/3/6
f 168/2/6 169/2/6 179/2/6
f 178/3/6 168/3/6 179/3/6
f 169/3/6 170/3/6 180/3/6
f 179/2/6 169/2/6 180/2/6
f 170/2/6 171/2/6 181/2/6
f 180/3/6 170/3/6 181/3/6
f 171/3/6 172/3/6 182/3/6
f 181/2/6 171/2/6 182/2/6
f 172/2/6 173/2/6 183/2/6
f 182/3/6 172/3/6 183/3/6
f 173/3/6 174/3/6 184/3/6
f 183/2/6 173/2/6 184/2/6
f 174/2/6 175/2/6 185/2/6
f 184/3/6 174/3/6 185/3/6
f 175/3/6 176/3/6 186/3/6
f 185/2/6 175/2/6 186/2/6
f 176/2/6 177/2/6 187/2/6
f 186/3/6 176/3/6 187/3/6
f 187/2/6 177/2/6 188/2/6
f 178/2/6 179/2/6 189/2/6
f 179/3/6 180/3/6 190/3/6
f 189/2/6 179/2/6 190/2/6
f 180/2/6 181/2/6 191/2/6
f 190/3/6 180/3/6 191/3/6
f 181/3/6 182/3/6 192/3/6
f 191/2/6 181/2/6 192/2/6
f 182/2/6 183/2/6 193/2/6
f 192/3/6 182/3/6 193/3/6
f 183/3/6 184/3/6 194/3/6
f 193/2/6 183/2/6 194/2/6
f 184/2/6 185/2/6 195/2/6
f 194/3/6 184/3/6 195/3/6
f 185/3/6 186/3/6 196/3/6
f 195/2/6 185/2/6 196/2/6
f 186/2/6 187/2/6 197/2/6
f 196/3/6 186/3/6 197/3/6
f 187/3/6 188/3/6 198/3/6
f 197/2/6 187/2/6 198/2/6
f 198/3/6 188/3/6 199/3/6
f 189/3/6 190/3/6 200/3/6
f 190/2/6 191/2/6 201/2/6
f 200/3/6 190/3/6 201/3/6
f 191/3/6 192/3/6 202/3/6
f 201/2/6 191/2/6 202/2/6
f 192/2/6 193/2/6 203/2/6
f 202/3/6 192/3/6 203/3/6
f 193/3/6 194/3/6 204/3/6
f 203/2/6 193/2/6 204/2/6
f 194/2/6 195/2/6 205/2/6
f 204/3/6 194/3/6 205/3/6
f 195/3/6 196/3/6 206/3/6
f 205/2/6 195/2/6 206/2/6
f 196/2/6 197/2/6 207/2/6
f 206/3/6 196/3/6 207/3/6
f 197/3/6 198/3/6 208/3/6
f 207/2/6 197/2/6 208/2/6
f 198/2/6 199/2/6 209/2/6
f 208/3/6 198/3/6 209/3/6
f 209/2/6 199/2/6 210/2/6
f 200/2/6 201/2/6 211/2/6
f 201/3/6 202/3/6 212/3/6
f 211/2/6 201/2/6 212/2/6
f 202/2/6 203/2/6 213/2/6
f 212/3/6 202/3/6 213/3/6
f 203/3/6 204/3/6 214/3/6
f 213/2/6 203/2/6 214/2/6
f 204/2/6 205/2/6 215/2/6
f 214/3/6 204/3/6 215/3/6
f 205/3/6 206/3/6 216/3/6
f 215/2/6 205/2/6 216/2/6
f 206/2/6 207/2/6 217/2/6
f 216/3/6 206/3/6 217/3/6
f 207/3/6 208/3/6 218/3/6
f 217/2/6 207/2/6 218/2/6
f 208/2/6 209/2/6 219/2/6
f 218/3/6 208/3/6 219/3/6
f 209/3/6 210/3/6 220/3/6
f 219/2/6 209/2/6 220/2/6
f 220/3/6 210/3/6 221/3/6
