# MagicaVoxel @ Ephtracy

# group
o 

# material
mtllib grass_spots.mtl
usemtl palette

# normals
vn -1 0 0
vn 1 0 0
vn 0 0 1
vn 0 0 -1
vn 0 -1 0
vn 0 1 0

# texcoords
vt 0.232422 0.5
vt 0.748047 0.5
vt 0.771484 0.5

# verts
v 0 0 0
v 0 0 -1
v 0 0.3 0
v 0 0.3 -1
v 0 0.4 0
v 0 0.4 -1
v 1 0 0
v 1 0 -1
v 1 0.3 0
v 1 0.3 -1
v 1 0.4 0
v 1 0.4 -1
v 0 0 0
v 0 0.3 0
v 0 0.4 0
v 1 0 0
v 1 0.3 0
v 1 0.4 0
v 0 0 -1
v 0 0.3 -1
v 0 0.4 -1
v 1 0 -1
v 1 0.3 -1
v 1 0.4 -1
v 0 0 0
v 1 0 0
v 0 0 -1
v 1 0 -1
v 0 0.4 0
v 1 0.4 0
v 0.1 0.4 -0.1
v 0.2 0.4 -0.1
v 0.1 0.4 -0.2
v 0.2 0.4 -0.2
v 0.7 0.4 -0.2
v 0.8 0.4 -0.2
v 0.4 0.4 -0.3
v 0.5 0.4 -0.3
v 0.7 0.4 -0.3
v 0.8 0.4 -0.3
v 0.4 0.4 -0.4
v 0.5 0.4 -0.4
v 0.5 0.4 -0.6
v 0.6 0.4 -0.6
v 0.2 0.4 -0.7
v 0.3 0.4 -0.7
v 0.5 0.4 -0.7
v 0.6 0.4 -0.7
v 0.2 0.4 -0.8
v 0.3 0.4 -0.8
v 0.8 0.4 -0.8
v 0.9 0.4 -0.8
v 0.8 0.4 -0.9
v 0.9 0.4 -0.9
v 0 0.4 -1
v 1 0.4 -1

# faces
f 3/1/1 2/1/1 1/1/1
f 4/1/1 2/1/1 3/1/1
f 5/2/1 4/2/1 3/2/1
f 6/2/1 4/2/1 5/2/1
f 7/1/2 8/1/2 9/1/2
f 9/1/2 8/1/2 10/1/2
f 9/2/2 10/2/2 11/2/2
f 11/2/2 10/2/2 12/2/2
f 16/1/3 14/1/3 13/1/3
f 17/2/3 15/2/3 14/2/3
f 17/1/3 14/1/3 16/1/3
f 18/2/3 15/2/3 17/2/3
f 19/1/4 20/1/4 22/1/4
f 20/2/4 21/2/4 23/2/4
f 22/1/4 20/1/4 23/1/4
f 23/2/4 21/2/4 24/2/4
f 27/1/5 26/1/5 25/1/5
f 28/1/5 26/1/5 27/1/5
f 29/2/6 30/2/6 31/2/6
f 31/2/6 30/2/6 32/2/6
f 29/2/6 31/2/6 33/2/6
f 31/3/6 32/3/6 33/3/6
f 32/2/6 30/2/6 34/2/6
f 33/3/6 32/3/6 34/3/6
f 34/2/6 30/2/6 35/2/6
f 35/2/6 30/2/6 36/2/6
f 33/2/6 34/2/6 37/2/6
f 34/2/6 35/2/6 37/2/6
f 37/2/6 35/2/6 38/2/6
f 35/3/6 36/3/6 39/3/6
f 38/2/6 35/2/6 39/2/6
f 36/2/6 30/2/6 40/2/6
f 39/3/6 36/3/6 40/3/6
f 37/3/6 38/3/6 41/3/6
f 33/2/6 37/2/6 41/2/6
f 38/2/6 39/2/6 42/2/6
f 41/3/6 38/3/6 42/3/6
f 39/2/6 40/2/6 42/2/6
f 41/2/6 42/2/6 43/2/6
f 42/2/6 40/2/6 43/2/6
f 43/2/6 40/2/6 44/2/6
f 33/2/6 41/2/6 45/2/6
f 41/2/6 43/2/6 45/2/6
f 45/2/6 43/2/6 46/2/6
f 43/3/6 44/3/6 47/3/6
f 46/2/6 43/2/6 47/2/6
f 44/2/6 40/2/6 48/2/6
f 47/3/6 44/3/6 48/3/6
f 45/3/6 46/3/6 49/3/6
f 33/2/6 45/2/6 49/2/6
f 46/2/6 47/2/6 50/2/6
f 49/3/6 46/3/6 50/3/6
f 47/2/6 48/2/6 50/2/6
f 40/2/6 30/2/6 51/2/6
f 50/2/6 48/2/6 51/2/6
f 48/2/6 40/2/6 51/2/6
f 51/2/6 30/2/6 52/2/6
f 49/2/6 50/2/6 53/2/6
f 50/2/6 51/2/6 53/2/6
f 51/3/6 52/3/6 53/3/6
f 52/2/6 30/2/6 54/2/6
f 53/3/6 52/3/6 54/3/6
f 29/2/6 33/2/6 55/2/6
f 33/2/6 49/2/6 55/2/6
f 53/2/6 54/2/6 55/2/6
f 49/2/6 53/2/6 55/2/6
f 54/2/6 30/2/6 56/2/6
f 55/2/6 54/2/6 56/2/6
