# MagicaVoxel @ Ephtracy

# group
o 

# material
mtllib grass_spots.mtl
usemtl palette

# normals
vn -1 0 0
vn 1 0 0
vn 0 0 1
vn 0 0 -1
vn 0 -1 0
vn 0 1 0

# texcoords
vt 0.232422 0.5
vt 0.748047 0.5
vt 0.771484 0.5

# verts
v 0 0 0
v 0 0 -1
v 0 0.8 0
v 0 0.8 -1
v 0 1 0
v 0 1 -1
v 0.9 0.1 -0.1
v 0.9 0.1 -0.9
v 0.9 0.8 -0.1
v 0.9 0.8 -0.9
v 0.9 0.9 -0.1
v 0.9 0.9 -0.8
v 0.9 0.9 -0.9
v 0.1 0.1 -0.1
v 0.1 0.1 -0.9
v 0.1 0.8 -0.1
v 0.1 0.8 -0.9
v 0.1 0.9 -0.1
v 0.1 0.9 -0.2
v 0.1 0.9 -0.9
v 1 0 0
v 1 0 -1
v 1 0.8 0
v 1 0.8 -1
v 1 1 0
v 1 1 -1
v 0 0 0
v 0 0.8 0
v 0 1 0
v 1 0 0
v 1 0.8 0
v 1 1 0
v 0.1 0.1 -0.9
v 0.1 0.8 -0.9
v 0.1 0.9 -0.9
v 0.8 0.9 -0.9
v 0.9 0.1 -0.9
v 0.9 0.8 -0.9
v 0.9 0.9 -0.9
v 0.1 0.1 -0.1
v 0.1 0.8 -0.1
v 0.1 0.9 -0.1
v 0.2 0.9 -0.1
v 0.9 0.1 -0.1
v 0.9 0.8 -0.1
v 0.9 0.9 -0.1
v 0 0 -1
v 0 0.8 -1
v 0 1 -1
v 1 0 -1
v 1 0.8 -1
v 1 1 -1
v 0 0 0
v 1 0 0
v 0 0 -1
v 1 0 -1
v 0.1 0.9 -0.1
v 0.2 0.9 -0.1
v 0.9 0.9 -0.1
v 0.1 0.9 -0.2
v 0.2 0.9 -0.2
v 0.7 0.9 -0.2
v 0.8 0.9 -0.2
v 0.4 0.9 -0.3
v 0.5 0.9 -0.3
v 0.7 0.9 -0.3
v 0.8 0.9 -0.3
v 0.4 0.9 -0.4
v 0.5 0.9 -0.4
v 0.5 0.9 -0.6
v 0.6 0.9 -0.6
v 0.2 0.9 -0.7
v 0.3 0.9 -0.7
v 0.5 0.9 -0.7
v 0.6 0.9 -0.7
v 0.2 0.9 -0.8
v 0.3 0.9 -0.8
v 0.8 0.9 -0.8
v 0.9 0.9 -0.8
v 0.1 0.9 -0.9
v 0.8 0.9 -0.9
v 0.9 0.9 -0.9
v 0.1 0.1 -0.1
v 0.9 0.1 -0.1
v 0.1 0.1 -0.9
v 0.9 0.1 -0.9
v 0 1 0
v 1 1 0
v 0.1 1 -0.1
v 0.2 1 -0.1
v 0.1 1 -0.2
v 0.2 1 -0.2
v 0.7 1 -0.2
v 0.8 1 -0.2
v 0.4 1 -0.3
v 0.5 1 -0.3
v 0.7 1 -0.3
v 0.8 1 -0.3
v 0.4 1 -0.4
v 0.5 1 -0.4
v 0.5 1 -0.6
v 0.6 1 -0.6
v 0.2 1 -0.7
v 0.3 1 -0.7
v 0.5 1 -0.7
v 0.6 1 -0.7
v 0.2 1 -0.8
v 0.3 1 -0.8
v 0.8 1 -0.8
v 0.9 1 -0.8
v 0.8 1 -0.9
v 0.9 1 -0.9
v 0 1 -1
v 1 1 -1

# faces
f 3/1/1 2/1/1 1/1/1
f 4/1/1 2/1/1 3/1/1
f 5/2/1 4/2/1 3/2/1
f 6/2/1 4/2/1 5/2/1
f 9/1/1 8/1/1 7/1/1
f 10/1/1 8/1/1 9/1/1
f 11/2/1 10/2/1 9/2/1
f 12/2/1 10/2/1 11/2/1
f 13/2/1 10/2/1 12/2/1
f 14/1/2 15/1/2 16/1/2
f 16/1/2 15/1/2 17/1/2
f 16/2/2 17/2/2 18/2/2
f 18/2/2 17/2/2 19/2/2
f 19/2/2 17/2/2 20/2/2
f 21/1/2 22/1/2 23/1/2
f 23/1/2 22/1/2 24/1/2
f 23/2/2 24/2/2 25/2/2
f 25/2/2 24/2/2 26/2/2
f 30/1/3 28/1/3 27/1/3
f 31/2/3 29/2/3 28/2/3
f 31/1/3 28/1/3 30/1/3
f 32/2/3 29/2/3 31/2/3
f 36/2/3 35/2/3 34/2/3
f 37/1/3 34/1/3 33/1/3
f 38/2/3 36/2/3 34/2/3
f 38/1/3 34/1/3 37/1/3
f 39/2/3 36/2/3 38/2/3
f 41/2/4 42/2/4 43/2/4
f 40/1/4 41/1/4 44/1/4
f 41/2/4 43/2/4 45/2/4
f 44/1/4 41/1/4 45/1/4
f 45/2/4 43/2/4 46/2/4
f 47/1/4 48/1/4 50/1/4
f 48/2/4 49/2/4 51/2/4
f 50/1/4 48/1/4 51/1/4
f 51/2/4 49/2/4 52/2/4
f 55/1/5 54/1/5 53/1/5
f 56/1/5 54/1/5 55/1/5
f 60/3/5 58/3/5 57/3/5
f 61/2/5 59/2/5 58/2/5
f 61/3/5 58/3/5 60/3/5
f 62/2/5 59/2/5 61/2/5
f 63/2/5 59/2/5 62/2/5
f 64/2/5 61/2/5 60/2/5
f 64/2/5 62/2/5 61/2/5
f 65/2/5 62/2/5 64/2/5
f 66/3/5 63/3/5 62/3/5
f 66/2/5 62/2/5 65/2/5
f 67/2/5 59/2/5 63/2/5
f 67/3/5 63/3/5 66/3/5
f 68/3/5 65/3/5 64/3/5
f 68/2/5 64/2/5 60/2/5
f 69/2/5 66/2/5 65/2/5
f 69/3/5 65/3/5 68/3/5
f 69/2/5 67/2/5 66/2/5
f 70/2/5 69/2/5 68/2/5
f 70/2/5 67/2/5 69/2/5
f 71/2/5 67/2/5 70/2/5
f 72/2/5 68/2/5 60/2/5
f 72/2/5 70/2/5 68/2/5
f 73/2/5 70/2/5 72/2/5
f 74/3/5 71/3/5 70/3/5
f 74/2/5 70/2/5 73/2/5
f 75/2/5 67/2/5 71/2/5
f 75/3/5 71/3/5 74/3/5
f 76/3/5 73/3/5 72/3/5
f 76/2/5 72/2/5 60/2/5
f 77/2/5 74/2/5 73/2/5
f 77/3/5 73/3/5 76/3/5
f 77/2/5 75/2/5 74/2/5
f 78/2/5 59/2/5 67/2/5
f 78/2/5 75/2/5 77/2/5
f 78/2/5 67/2/5 75/2/5
f 79/2/5 59/2/5 78/2/5
f 80/2/5 76/2/5 60/2/5
f 80/2/5 77/2/5 76/2/5
f 80/2/5 78/2/5 77/2/5
f 81/3/5 79/3/5 78/3/5
f 81/2/5 78/2/5 80/2/5
f 82/3/5 79/3/5 81/3/5
f 83/1/6 84/1/6 85/1/6
f 85/1/6 84/1/6 86/1/6
f 87/2/6 88/2/6 89/2/6
f 89/2/6 88/2/6 90/2/6
f 87/2/6 89/2/6 91/2/6
f 89/3/6 90/3/6 91/3/6
f 90/2/6 88/2/6 92/2/6
f 91/3/6 90/3/6 92/3/6
f 92/2/6 88/2/6 93/2/6
f 93/2/6 88/2/6 94/2/6
f 91/2/6 92/2/6 95/2/6
f 92/2/6 93/2/6 95/2/6
f 95/2/6 93/2/6 96/2/6
f 93/3/6 94/3/6 97/3/6
f 96/2/6 93/2/6 97/2/6
f 94/2/6 88/2/6 98/2/6
f 97/3/6 94/3/6 98/3/6
f 95/3/6 96/3/6 99/3/6
f 91/2/6 95/2/6 99/2/6
f 96/2/6 97/2/6 100/2/6
f 99/3/6 96/3/6 100/3/6
f 97/2/6 98/2/6 100/2/6
f 99/2/6 100/2/6 101/2/6
f 100/2/6 98/2/6 101/2/6
f 101/2/6 98/2/6 102/2/6
f 91/2/6 99/2/6 103/2/6
f 99/2/6 101/2/6 103/2/6
f 103/2/6 101/2/6 104/2/6
f 101/3/6 102/3/6 105/3/6
f 104/2/6 101/2/6 105/2/6
f 102/2/6 98/2/6 106/2/6
f 105/3/6 102/3/6 106/3/6
f 103/3/6 104/3/6 107/3/6
f 91/2/6 103/2/6 107/2/6
f 104/2/6 105/2/6 108/2/6
f 107/3/6 104/3/6 108/3/6
f 105/2/6 106/2/6 108/2/6
f 98/2/6 88/2/6 109/2/6
f 108/2/6 106/2/6 109/2/6
f 106/2/6 98/2/6 109/2/6
f 109/2/6 88/2/6 110/2/6
f 107/2/6 108/2/6 111/2/6
f 108/2/6 109/2/6 111/2/6
f 109/3/6 110/3/6 111/3/6
f 110/2/6 88/2/6 112/2/6
f 111/3/6 110/3/6 112/3/6
f 87/2/6 91/2/6 113/2/6
f 91/2/6 107/2/6 113/2/6
f 111/2/6 112/2/6 113/2/6
f 107/2/6 111/2/6 113/2/6
f 112/2/6 88/2/6 114/2/6
f 113/2/6 112/2/6 114/2/6
