# MagicaVoxel @ Ephtracy

# group
o 

# material
mtllib Banana.mtl
usemtl palette

# normals
vn -1 0 0
vn 1 0 0
vn 0 0 1
vn 0 0 -1
vn 0 -1 0
vn 0 1 0

# texcoords
vt 0.310547 0.5
vt 0.482422 0.5

# verts
v -0.4 -0.1 0.1
v -0.4 -0.1 -0.1
v -0.4 0.3 0.1
v -0.4 0.3 -0.1
v -0.4 0.5 0.1
v -0.4 0.5 -0.1
v -0.3 -0.2 0.1
v -0.3 -0.2 -0.1
v -0.3 -0.1 0.1
v -0.3 -0.1 -0.1
v -0.2 -0.3 0.1
v -0.2 -0.3 -0.1
v -0.2 -0.2 0.1
v -0.2 -0.2 -0.1
v -0.1 -0.4 0.1
v -0.1 -0.4 -0.1
v -0.1 -0.3 0.1
v -0.1 -0.3 -0.1
v -0.3 0.4 0.1
v -0.3 0.4 -0.1
v -0.3 0.5 0.1
v -0.3 0.5 -0.1
v -0.2 0.1 0.1
v -0.2 0.1 -0.1
v -0.2 0.3 0.1
v -0.2 0.3 -0.1
v -0.2 0.4 0.1
v -0.2 0.4 -0.1
v -0.1 0 0.1
v -0.1 0 -0.1
v -0.1 0.1 0.1
v -0.1 0.1 -0.1
v 0 -0.1 0.1
v 0 -0.1 -0.1
v 0 0 0.1
v 0 0 -0.1
v 0.1 -0.2 0.1
v 0.1 -0.2 -0.1
v 0.1 -0.1 0.1
v 0.1 -0.1 -0.1
v 0.3 -0.3 0.1
v 0.3 -0.3 -0.1
v 0.3 -0.2 0.1
v 0.3 -0.2 -0.1
v 0.4 -0.4 0.1
v 0.4 -0.4 -0.1
v 0.4 -0.3 0.1
v 0.4 -0.3 -0.1
v -0.4 -0.1 0.1
v -0.4 0.3 0.1
v -0.4 0.5 0.1
v -0.3 -0.2 0.1
v -0.3 -0.1 0.1
v -0.3 0.4 0.1
v -0.3 0.5 0.1
v -0.2 -0.3 0.1
v -0.2 -0.2 0.1
v -0.2 0.1 0.1
v -0.2 0.3 0.1
v -0.2 0.4 0.1
v -0.1 -0.4 0.1
v -0.1 -0.3 0.1
v -0.1 0 0.1
v -0.1 0.1 0.1
v 0 -0.1 0.1
v 0 0 0.1
v 0.1 -0.2 0.1
v 0.1 -0.1 0.1
v 0.3 -0.4 0.1
v 0.3 -0.3 0.1
v 0.3 -0.2 0.1
v 0.4 -0.4 0.1
v 0.4 -0.3 0.1
v -0.4 -0.1 -0.1
v -0.4 0.3 -0.1
v -0.4 0.5 -0.1
v -0.3 -0.2 -0.1
v -0.3 -0.1 -0.1
v -0.3 0.4 -0.1
v -0.3 0.5 -0.1
v -0.2 -0.3 -0.1
v -0.2 -0.2 -0.1
v -0.2 0.1 -0.1
v -0.2 0.3 -0.1
v -0.2 0.4 -0.1
v -0.1 -0.4 -0.1
v -0.1 -0.3 -0.1
v -0.1 0 -0.1
v -0.1 0.1 -0.1
v 0 -0.1 -0.1
v 0 0 -0.1
v 0.1 -0.2 -0.1
v 0.1 -0.1 -0.1
v 0.3 -0.4 -0.1
v 0.3 -0.3 -0.1
v 0.3 -0.2 -0.1
v 0.4 -0.4 -0.1
v 0.4 -0.3 -0.1
v -0.1 -0.4 0.1
v 0.3 -0.4 0.1
v 0.4 -0.4 0.1
v -0.1 -0.4 -0.1
v 0.3 -0.4 -0.1
v 0.4 -0.4 -0.1
v -0.2 -0.3 0.1
v -0.1 -0.3 0.1
v -0.2 -0.3 -0.1
v -0.1 -0.3 -0.1
v -0.3 -0.2 0.1
v -0.2 -0.2 0.1
v -0.3 -0.2 -0.1
v -0.2 -0.2 -0.1
v -0.4 -0.1 0.1
v -0.3 -0.1 0.1
v -0.4 -0.1 -0.1
v -0.3 -0.1 -0.1
v 0.3 -0.3 0.1
v 0.4 -0.3 0.1
v 0.3 -0.3 -0.1
v 0.4 -0.3 -0.1
v 0.1 -0.2 0.1
v 0.3 -0.2 0.1
v 0.1 -0.2 -0.1
v 0.3 -0.2 -0.1
v 0 -0.1 0.1
v 0.1 -0.1 0.1
v 0 -0.1 -0.1
v 0.1 -0.1 -0.1
v -0.1 0 0.1
v 0 0 0.1
v -0.1 0 -0.1
v 0 0 -0.1
v -0.2 0.1 0.1
v -0.1 0.1 0.1
v -0.2 0.1 -0.1
v -0.1 0.1 -0.1
v -0.3 0.4 0.1
v -0.2 0.4 0.1
v -0.3 0.4 -0.1
v -0.2 0.4 -0.1
v -0.4 0.5 0.1
v -0.3 0.5 0.1
v -0.4 0.5 -0.1
v -0.3 0.5 -0.1

# faces
f 3/2/1 2/2/1 1/2/1
f 4/2/1 2/2/1 3/2/1
f 5/1/1 4/1/1 3/1/1
f 6/1/1 4/1/1 5/1/1
f 9/2/1 8/2/1 7/2/1
f 10/2/1 8/2/1 9/2/1
f 13/2/1 12/2/1 11/2/1
f 14/2/1 12/2/1 13/2/1
f 17/2/1 16/2/1 15/2/1
f 18/2/1 16/2/1 17/2/1
f 19/1/2 20/1/2 21/1/2
f 21/1/2 20/1/2 22/1/2
f 23/2/2 24/2/2 25/2/2
f 25/2/2 24/2/2 26/2/2
f 25/1/2 26/1/2 27/1/2
f 27/1/2 26/1/2 28/1/2
f 29/2/2 30/2/2 31/2/2
f 31/2/2 30/2/2 32/2/2
f 33/2/2 34/2/2 35/2/2
f 35/2/2 34/2/2 36/2/2
f 37/2/2 38/2/2 39/2/2
f 39/2/2 38/2/2 40/2/2
f 41/2/2 42/2/2 43/2/2
f 43/2/2 42/2/2 44/2/2
f 45/1/2 46/1/2 47/1/2
f 47/1/2 46/1/2 48/1/2
f 53/2/3 50/2/3 49/2/3
f 54/1/3 51/1/3 50/1/3
f 55/1/3 51/1/3 54/1/3
f 57/2/3 53/2/3 52/2/3
f 58/2/3 50/2/3 53/2/3
f 58/2/3 53/2/3 57/2/3
f 59/1/3 54/1/3 50/1/3
f 59/2/3 50/2/3 58/2/3
f 60/1/3 54/1/3 59/1/3
f 62/2/3 57/2/3 56/2/3
f 62/2/3 58/2/3 57/2/3
f 63/2/3 58/2/3 62/2/3
f 64/2/3 58/2/3 63/2/3
f 65/2/3 62/2/3 61/2/3
f 65/2/3 63/2/3 62/2/3
f 66/2/3 63/2/3 65/2/3
f 67/2/3 65/2/3 61/2/3
f 68/2/3 65/2/3 67/2/3
f 69/2/3 67/2/3 61/2/3
f 70/2/3 67/2/3 69/2/3
f 71/2/3 67/2/3 70/2/3
f 72/1/3 70/1/3 69/1/3
f 73/1/3 70/1/3 72/1/3
f 74/2/4 75/2/4 78/2/4
f 75/1/4 76/1/4 79/1/4
f 79/1/4 76/1/4 80/1/4
f 77/2/4 78/2/4 82/2/4
f 78/2/4 75/2/4 83/2/4
f 82/2/4 78/2/4 83/2/4
f 75/1/4 79/1/4 84/1/4
f 83/2/4 75/2/4 84/2/4
f 84/1/4 79/1/4 85/1/4
f 81/2/4 82/2/4 87/2/4
f 82/2/4 83/2/4 87/2/4
f 87/2/4 83/2/4 88/2/4
f 88/2/4 83/2/4 89/2/4
f 86/2/4 87/2/4 90/2/4
f 87/2/4 88/2/4 90/2/4
f 90/2/4 88/2/4 91/2/4
f 86/2/4 90/2/4 92/2/4
f 92/2/4 90/2/4 93/2/4
f 86/2/4 92/2/4 94/2/4
f 94/2/4 92/2/4 95/2/4
f 95/2/4 92/2/4 96/2/4
f 94/1/4 95/1/4 97/1/4
f 97/1/4 95/1/4 98/1/4
f 102/2/5 100/2/5 99/2/5
f 103/1/5 101/1/5 100/1/5
f 103/2/5 100/2/5 102/2/5
f 104/1/5 101/1/5 103/1/5
f 107/2/5 106/2/5 105/2/5
f 108/2/5 106/2/5 107/2/5
f 111/2/5 110/2/5 109/2/5
f 112/2/5 110/2/5 111/2/5
f 115/2/5 114/2/5 113/2/5
f 116/2/5 114/2/5 115/2/5
f 117/1/6 118/1/6 119/1/6
f 119/1/6 118/1/6 120/1/6
f 121/2/6 122/2/6 123/2/6
f 123/2/6 122/2/6 124/2/6
f 125/2/6 126/2/6 127/2/6
f 127/2/6 126/2/6 128/2/6
f 129/2/6 130/2/6 131/2/6
f 131/2/6 130/2/6 132/2/6
f 133/2/6 134/2/6 135/2/6
f 135/2/6 134/2/6 136/2/6
f 137/1/6 138/1/6 139/1/6
f 139/1/6 138/1/6 140/1/6
f 141/1/6 142/1/6 143/1/6
f 143/1/6 142/1/6 144/1/6
