# Blender v2.80 (sub 48) OBJ File: ''
# www.blender.org
mtllib Banana.mtl
o Banana
v -0.298387 0.351613 0.100000
v -0.298387 -0.048387 -0.100000
v -0.298387 -0.048387 0.100000
v -0.298387 0.351613 -0.100000
v -0.298387 0.551613 0.100000
v -0.298387 0.551613 -0.100000
v -0.198387 -0.048387 0.100000
v -0.198387 -0.148387 -0.100000
v -0.198387 -0.148387 0.100000
v -0.198387 -0.048387 -0.100000
v -0.098387 -0.148387 0.100000
v -0.098387 -0.248387 -0.100000
v -0.098387 -0.248387 0.100000
v -0.098387 -0.148387 -0.100000
v 0.001613 -0.248387 0.100000
v 0.001613 -0.348387 -0.100000
v 0.001613 -0.348387 0.100000
v 0.001613 -0.248387 -0.100000
v -0.198387 0.451613 0.100000
v -0.198387 0.451613 -0.100000
v -0.198387 0.551613 0.100000
v -0.198387 0.551613 -0.100000
v -0.098387 0.151613 0.100000
v -0.098387 0.151613 -0.100000
v -0.098387 0.351613 0.100000
v -0.098387 0.351613 -0.100000
v -0.098387 0.451613 0.100000
v -0.098387 0.451613 -0.100000
v 0.001613 0.051613 0.100000
v 0.001613 0.051613 -0.100000
v 0.001613 0.151613 0.100000
v 0.001613 0.151613 -0.100000
v 0.101613 -0.048387 0.100000
v 0.101613 -0.048387 -0.100000
v 0.101613 0.051613 0.100000
v 0.101613 0.051613 -0.100000
v 0.201613 -0.148387 0.100000
v 0.201613 -0.148387 -0.100000
v 0.201613 -0.048387 0.100000
v 0.201613 -0.048387 -0.100000
v 0.401613 -0.248387 0.100000
v 0.401613 -0.248387 -0.100000
v 0.401613 -0.148387 0.100000
v 0.401613 -0.148387 -0.100000
v 0.501613 -0.348387 0.100000
v 0.501613 -0.348387 -0.100000
v 0.501613 -0.248387 0.100000
v 0.501613 -0.248387 -0.100000
v -0.198387 -0.048387 0.100000
v -0.298387 0.351613 0.100000
v -0.298387 -0.048387 0.100000
v -0.198387 0.451613 0.100000
v -0.298387 0.551613 0.100000
v -0.198387 0.551613 0.100000
v -0.098387 -0.148387 0.100000
v -0.198387 -0.148387 0.100000
v -0.098387 0.151613 0.100000
v -0.098387 0.351613 0.100000
v -0.098387 0.451613 0.100000
v 0.001613 -0.248387 0.100000
v -0.098387 -0.248387 0.100000
v 0.001613 0.051613 0.100000
v 0.001613 0.151613 0.100000
v 0.101613 -0.048387 0.100000
v 0.001613 -0.348387 0.100000
v 0.101613 0.051613 0.100000
v 0.201613 -0.148387 0.100000
v 0.201613 -0.048387 0.100000
v 0.401613 -0.348387 0.100000
v 0.401613 -0.248387 0.100000
v 0.401613 -0.148387 0.100000
v 0.501613 -0.348387 0.100000
v 0.501613 -0.248387 0.100000
v -0.298387 -0.048387 -0.100000
v -0.298387 0.351613 -0.100000
v -0.198387 -0.048387 -0.100000
v -0.298387 0.551613 -0.100000
v -0.198387 0.451613 -0.100000
v -0.198387 0.551613 -0.100000
v -0.198387 -0.148387 -0.100000
v -0.098387 -0.148387 -0.100000
v -0.098387 0.151613 -0.100000
v -0.098387 0.351613 -0.100000
v -0.098387 0.451613 -0.100000
v -0.098387 -0.248387 -0.100000
v 0.001613 -0.248387 -0.100000
v 0.001613 0.051613 -0.100000
v 0.001613 0.151613 -0.100000
v 0.001613 -0.348387 -0.100000
v 0.101613 -0.048387 -0.100000
v 0.101613 0.051613 -0.100000
v 0.201613 -0.148387 -0.100000
v 0.201613 -0.048387 -0.100000
v 0.401613 -0.348387 -0.100000
v 0.401613 -0.248387 -0.100000
v 0.401613 -0.148387 -0.100000
v 0.501613 -0.348387 -0.100000
v 0.501613 -0.248387 -0.100000
v 0.001613 -0.348387 -0.100000
v 0.401613 -0.348387 0.100000
v 0.001613 -0.348387 0.100000
v 0.401613 -0.348387 -0.100000
v 0.501613 -0.348387 0.100000
v 0.501613 -0.348387 -0.100000
v -0.098387 -0.248387 -0.100000
v 0.001613 -0.248387 0.100000
v -0.098387 -0.248387 0.100000
v 0.001613 -0.248387 -0.100000
v -0.198387 -0.148387 -0.100000
v -0.098387 -0.148387 0.100000
v -0.198387 -0.148387 0.100000
v -0.098387 -0.148387 -0.100000
v -0.298387 -0.048387 -0.100000
v -0.198387 -0.048387 0.100000
v -0.298387 -0.048387 0.100000
v -0.198387 -0.048387 -0.100000
v 0.401613 -0.248387 0.100000
v 0.501613 -0.248387 0.100000
v 0.401613 -0.248387 -0.100000
v 0.501613 -0.248387 -0.100000
v 0.201613 -0.148387 0.100000
v 0.401613 -0.148387 0.100000
v 0.201613 -0.148387 -0.100000
v 0.401613 -0.148387 -0.100000
v 0.101613 -0.048387 0.100000
v 0.201613 -0.048387 0.100000
v 0.101613 -0.048387 -0.100000
v 0.201613 -0.048387 -0.100000
v 0.001613 0.051613 0.100000
v 0.101613 0.051613 0.100000
v 0.001613 0.051613 -0.100000
v 0.101613 0.051613 -0.100000
v -0.098387 0.151613 0.100000
v 0.001613 0.151613 0.100000
v -0.098387 0.151613 -0.100000
v 0.001613 0.151613 -0.100000
v -0.198387 0.451613 0.100000
v -0.098387 0.451613 0.100000
v -0.198387 0.451613 -0.100000
v -0.098387 0.451613 -0.100000
v -0.298387 0.551613 0.100000
v -0.198387 0.551613 0.100000
v -0.298387 0.551613 -0.100000
v -0.198387 0.551613 -0.100000
vt 0.482422 0.500000
vt 0.482422 0.500000
vt 0.482422 0.500000
vt 0.482422 0.500000
vt 0.310547 0.500000
vt 0.310547 0.500000
vt 0.310547 0.500000
vt 0.310547 0.500000
vt 0.482422 0.500000
vt 0.482422 0.500000
vt 0.482422 0.500000
vt 0.482422 0.500000
vt 0.482422 0.500000
vt 0.482422 0.500000
vt 0.482422 0.500000
vt 0.482422 0.500000
vt 0.482422 0.500000
vt 0.482422 0.500000
vt 0.482422 0.500000
vt 0.482422 0.500000
vt 0.310547 0.500000
vt 0.310547 0.500000
vt 0.310547 0.500000
vt 0.310547 0.500000
vt 0.482422 0.500000
vt 0.482422 0.500000
vt 0.482422 0.500000
vt 0.482422 0.500000
vt 0.310547 0.500000
vt 0.310547 0.500000
vt 0.310547 0.500000
vt 0.310547 0.500000
vt 0.482422 0.500000
vt 0.482422 0.500000
vt 0.482422 0.500000
vt 0.482422 0.500000
vt 0.482422 0.500000
vt 0.482422 0.500000
vt 0.482422 0.500000
vt 0.482422 0.500000
vt 0.482422 0.500000
vt 0.482422 0.500000
vt 0.482422 0.500000
vt 0.482422 0.500000
vt 0.482422 0.500000
vt 0.482422 0.500000
vt 0.482422 0.500000
vt 0.482422 0.500000
vt 0.310547 0.500000
vt 0.310547 0.500000
vt 0.310547 0.500000
vt 0.310547 0.500000
vt 0.482422 0.500000
vt 0.482422 0.500000
vt 0.482422 0.500000
vt 0.310547 0.500000
vt 0.310547 0.500000
vt 0.310547 0.500000
vt 0.310547 0.500000
vt 0.482422 0.500000
vt 0.482422 0.500000
vt 0.482422 0.500000
vt 0.310547 0.500000
vt 0.482422 0.500000
vt 0.310547 0.500000
vt 0.482422 0.500000
vt 0.482422 0.500000
vt 0.482422 0.500000
vt 0.482422 0.500000
vt 0.482422 0.500000
vt 0.482422 0.500000
vt 0.482422 0.500000
vt 0.482422 0.500000
vt 0.482422 0.500000
vt 0.482422 0.500000
vt 0.482422 0.500000
vt 0.482422 0.500000
vt 0.310547 0.500000
vt 0.310547 0.500000
vt 0.310547 0.500000
vt 0.310547 0.500000
vt 0.482422 0.500000
vt 0.482422 0.500000
vt 0.482422 0.500000
vt 0.310547 0.500000
vt 0.310547 0.500000
vt 0.310547 0.500000
vt 0.310547 0.500000
vt 0.482422 0.500000
vt 0.482422 0.500000
vt 0.482422 0.500000
vt 0.310547 0.500000
vt 0.482422 0.500000
vt 0.310547 0.500000
vt 0.482422 0.500000
vt 0.482422 0.500000
vt 0.482422 0.500000
vt 0.482422 0.500000
vt 0.482422 0.500000
vt 0.482422 0.500000
vt 0.482422 0.500000
vt 0.482422 0.500000
vt 0.482422 0.500000
vt 0.482422 0.500000
vt 0.482422 0.500000
vt 0.482422 0.500000
vt 0.310547 0.500000
vt 0.310547 0.500000
vt 0.310547 0.500000
vt 0.310547 0.500000
vt 0.482422 0.500000
vt 0.482422 0.500000
vt 0.482422 0.500000
vt 0.310547 0.500000
vt 0.310547 0.500000
vt 0.310547 0.500000
vt 0.482422 0.500000
vt 0.310547 0.500000
vt 0.482422 0.500000
vt 0.482422 0.500000
vt 0.482422 0.500000
vt 0.482422 0.500000
vt 0.482422 0.500000
vt 0.482422 0.500000
vt 0.482422 0.500000
vt 0.482422 0.500000
vt 0.482422 0.500000
vt 0.482422 0.500000
vt 0.482422 0.500000
vt 0.482422 0.500000
vt 0.310547 0.500000
vt 0.310547 0.500000
vt 0.310547 0.500000
vt 0.310547 0.500000
vt 0.482422 0.500000
vt 0.482422 0.500000
vt 0.482422 0.500000
vt 0.482422 0.500000
vt 0.482422 0.500000
vt 0.482422 0.500000
vt 0.482422 0.500000
vt 0.482422 0.500000
vt 0.482422 0.500000
vt 0.482422 0.500000
vt 0.482422 0.500000
vt 0.482422 0.500000
vt 0.482422 0.500000
vt 0.482422 0.500000
vt 0.482422 0.500000
vt 0.482422 0.500000
vt 0.310547 0.500000
vt 0.310547 0.500000
vt 0.310547 0.500000
vt 0.310547 0.500000
vt 0.310547 0.500000
vt 0.310547 0.500000
vt 0.310547 0.500000
vt 0.310547 0.500000
vn -1.0000 0.0000 0.0000
vn 1.0000 0.0000 0.0000
vn 0.0000 -0.0000 1.0000
vn 0.0000 0.0000 -1.0000
vn 0.0000 -1.0000 -0.0000
vn 0.0000 1.0000 0.0000
usemtl palette.029
s 1
f 1/1/1 2/2/1 3/3/1
f 4/4/1 2/2/1 1/1/1
f 5/5/1 4/6/1 1/7/1
f 6/8/1 4/6/1 5/5/1
f 7/9/1 8/10/1 9/11/1
f 10/12/1 8/10/1 7/9/1
f 11/13/1 12/14/1 13/15/1
f 14/16/1 12/14/1 11/13/1
f 15/17/1 16/18/1 17/19/1
f 18/20/1 16/18/1 15/17/1
f 19/21/2 20/22/2 21/23/2
f 21/23/2 20/22/2 22/24/2
f 23/25/2 24/26/2 25/27/2
f 25/27/2 24/26/2 26/28/2
f 25/29/2 26/30/2 27/31/2
f 27/31/2 26/30/2 28/32/2
f 29/33/2 30/34/2 31/35/2
f 31/35/2 30/34/2 32/36/2
f 33/37/2 34/38/2 35/39/2
f 35/39/2 34/38/2 36/40/2
f 37/41/2 38/42/2 39/43/2
f 39/43/2 38/42/2 40/44/2
f 41/45/2 42/46/2 43/47/2
f 43/47/2 42/46/2 44/48/2
f 45/49/2 46/50/2 47/51/2
f 47/51/2 46/50/2 48/52/2
f 49/53/3 50/54/3 51/55/3
f 52/56/3 53/57/3 50/58/3
f 54/59/3 53/57/3 52/56/3
f 55/60/3 49/53/3 56/61/3
f 57/62/3 50/54/3 49/53/3
f 57/62/3 49/53/3 55/60/3
f 58/63/3 52/56/3 50/58/3
f 58/64/3 50/54/3 57/62/3
f 59/65/3 52/56/3 58/63/3
f 60/66/3 55/60/3 61/67/3
f 60/66/3 57/62/3 55/60/3
f 62/68/3 57/62/3 60/66/3
f 63/69/3 57/62/3 62/68/3
f 64/70/3 60/66/3 65/71/3
f 64/70/3 62/68/3 60/66/3
f 66/72/3 62/68/3 64/70/3
f 67/73/3 64/70/3 65/71/3
f 68/74/3 64/70/3 67/73/3
f 69/75/3 67/73/3 65/71/3
f 70/76/3 67/73/3 69/75/3
f 71/77/3 67/73/3 70/76/3
f 72/78/3 70/79/3 69/80/3
f 73/81/3 70/79/3 72/78/3
f 74/82/4 75/83/4 76/84/4
f 75/85/4 77/86/4 78/87/4
f 78/87/4 77/86/4 79/88/4
f 80/89/4 76/84/4 81/90/4
f 76/84/4 75/83/4 82/91/4
f 81/90/4 76/84/4 82/91/4
f 75/85/4 78/87/4 83/92/4
f 82/91/4 75/83/4 83/93/4
f 83/92/4 78/87/4 84/94/4
f 85/95/4 81/90/4 86/96/4
f 81/90/4 82/91/4 86/96/4
f 86/96/4 82/91/4 87/97/4
f 87/97/4 82/91/4 88/98/4
f 89/99/4 86/96/4 90/100/4
f 86/96/4 87/97/4 90/100/4
f 90/100/4 87/97/4 91/101/4
f 89/99/4 90/100/4 92/102/4
f 92/102/4 90/100/4 93/103/4
f 89/99/4 92/102/4 94/104/4
f 94/104/4 92/102/4 95/105/4
f 95/105/4 92/102/4 96/106/4
f 94/107/4 95/108/4 97/109/4
f 97/109/4 95/108/4 98/110/4
f 99/111/5 100/112/5 101/113/5
f 102/114/5 103/115/5 100/116/5
f 102/117/5 100/112/5 99/111/5
f 104/118/5 103/115/5 102/114/5
f 105/119/5 106/120/5 107/121/5
f 108/122/5 106/120/5 105/119/5
f 109/123/5 110/124/5 111/125/5
f 112/126/5 110/124/5 109/123/5
f 113/127/5 114/128/5 115/129/5
f 116/130/5 114/128/5 113/127/5
f 117/131/6 118/132/6 119/133/6
f 119/133/6 118/132/6 120/134/6
f 121/135/6 122/136/6 123/137/6
f 123/137/6 122/136/6 124/138/6
f 125/139/6 126/140/6 127/141/6
f 127/141/6 126/140/6 128/142/6
f 129/143/6 130/144/6 131/145/6
f 131/145/6 130/144/6 132/146/6
f 133/147/6 134/148/6 135/149/6
f 135/149/6 134/148/6 136/150/6
f 137/151/6 138/152/6 139/153/6
f 139/153/6 138/152/6 140/154/6
f 141/155/6 142/156/6 143/157/6
f 143/157/6 142/156/6 144/158/6
