# MagicaVoxel @ Ephtracy

# group
o 

# material
mtllib eye13.mtl
usemtl palette

# normals
vn -1 0 0
vn 1 0 0
vn 0 0 1
vn 0 0 -1
vn 0 -1 0
vn 0 1 0

# texcoords
vt 0.958984 0.5
vt 0.994141 0.5

# verts
v -0.3 0.1 -0.1
v -0.3 0.1 -0.2
v -0.3 0.6 -0.1
v -0.3 0.6 -0.2
v -0.2 0 -0.1
v -0.2 0 -0.2
v -0.2 0.1 -0.1
v -0.2 0.1 -0.2
v -0.2 0.2 0
v -0.2 0.2 -0.1
v -0.2 0.5 0
v -0.2 0.5 -0.1
v -0.2 0.6 -0.1
v -0.2 0.6 -0.2
v -0.2 0.7 -0.1
v -0.2 0.7 -0.2
v -0.1 0.1 0
v -0.1 0.1 -0.1
v -0.1 0.2 0.1
v -0.1 0.2 0
v -0.1 0.2 -0.1
v -0.1 0.5 0.1
v -0.1 0.5 0
v -0.1 0.5 -0.1
v -0.1 0.6 0
v -0.1 0.6 -0.1
v 0.2 0.1 -0.1
v 0.2 0.1 -0.2
v 0.2 0.2 0
v 0.2 0.2 -0.1
v 0.2 0.2 -0.2
v 0.2 0.5 0
v 0.2 0.5 -0.1
v 0.2 0.5 -0.2
v 0.2 0.6 -0.1
v 0.2 0.6 -0.2
v 0.3 0.2 -0.1
v 0.3 0.2 -0.2
v 0.3 0.5 -0.1
v 0.3 0.5 -0.2
v -0.2 0.2 -0.1
v -0.2 0.2 -0.2
v -0.2 0.5 -0.1
v -0.2 0.5 -0.2
v -0.1 0.1 -0.1
v -0.1 0.1 -0.2
v -0.1 0.2 0
v -0.1 0.2 -0.1
v -0.1 0.2 -0.2
v -0.1 0.5 0
v -0.1 0.5 -0.1
v -0.1 0.5 -0.2
v -0.1 0.6 -0.1
v -0.1 0.6 -0.2
v 0.2 0.1 0
v 0.2 0.1 -0.1
v 0.2 0.2 0.1
v 0.2 0.2 0
v 0.2 0.2 -0.1
v 0.2 0.5 0.1
v 0.2 0.5 0
v 0.2 0.5 -0.1
v 0.2 0.6 0
v 0.2 0.6 -0.1
v 0.3 0 -0.1
v 0.3 0 -0.2
v 0.3 0.1 -0.1
v 0.3 0.1 -0.2
v 0.3 0.2 0
v 0.3 0.2 -0.1
v 0.3 0.5 0
v 0.3 0.5 -0.1
v 0.3 0.6 -0.1
v 0.3 0.6 -0.2
v 0.3 0.7 -0.1
v 0.3 0.7 -0.2
v 0.4 0.1 -0.1
v 0.4 0.1 -0.2
v 0.4 0.6 -0.1
v 0.4 0.6 -0.2
v -0.1 0.2 0.1
v -0.1 0.5 0.1
v 0 0.3 0.1
v 0 0.4 0.1
v 0.1 0.3 0.1
v 0.1 0.4 0.1
v 0.2 0.2 0.1
v 0.2 0.5 0.1
v -0.2 0.2 0
v -0.2 0.5 0
v -0.1 0.1 0
v -0.1 0.2 0
v -0.1 0.5 0
v -0.1 0.6 0
v 0.2 0.1 0
v 0.2 0.2 0
v 0.2 0.5 0
v 0.2 0.6 0
v 0.3 0.2 0
v 0.3 0.5 0
v -0.3 0.1 -0.1
v -0.3 0.6 -0.1
v -0.2 0 -0.1
v -0.2 0.1 -0.1
v -0.2 0.2 -0.1
v -0.2 0.5 -0.1
v -0.2 0.6 -0.1
v -0.2 0.7 -0.1
v -0.1 0.1 -0.1
v -0.1 0.2 -0.1
v -0.1 0.5 -0.1
v -0.1 0.6 -0.1
v 0.2 0.1 -0.1
v 0.2 0.2 -0.1
v 0.2 0.5 -0.1
v 0.2 0.6 -0.1
v 0.3 0 -0.1
v 0.3 0.1 -0.1
v 0.3 0.2 -0.1
v 0.3 0.5 -0.1
v 0.3 0.6 -0.1
v 0.3 0.7 -0.1
v 0.4 0.1 -0.1
v 0.4 0.6 -0.1
v -0.1 0.2 0
v -0.1 0.5 0
v 0 0.3 0
v 0 0.4 0
v 0.1 0.3 0
v 0.1 0.4 0
v 0.2 0.2 0
v 0.2 0.5 0
v -0.2 0.2 -0.1
v -0.2 0.5 -0.1
v -0.1 0.1 -0.1
v -0.1 0.2 -0.1
v -0.1 0.5 -0.1
v -0.1 0.6 -0.1
v 0.2 0.1 -0.1
v 0.2 0.2 -0.1
v 0.2 0.5 -0.1
v 0.2 0.6 -0.1
v 0.3 0.2 -0.1
v 0.3 0.5 -0.1
v -0.3 0.1 -0.2
v -0.3 0.6 -0.2
v -0.2 0 -0.2
v -0.2 0.1 -0.2
v -0.2 0.2 -0.2
v -0.2 0.5 -0.2
v -0.2 0.6 -0.2
v -0.2 0.7 -0.2
v -0.1 0.1 -0.2
v -0.1 0.2 -0.2
v -0.1 0.5 -0.2
v -0.1 0.6 -0.2
v 0.2 0.1 -0.2
v 0.2 0.2 -0.2
v 0.2 0.5 -0.2
v 0.2 0.6 -0.2
v 0.3 0 -0.2
v 0.3 0.1 -0.2
v 0.3 0.2 -0.2
v 0.3 0.5 -0.2
v 0.3 0.6 -0.2
v 0.3 0.7 -0.2
v 0.4 0.1 -0.2
v 0.4 0.6 -0.2
v -0.2 0 -0.1
v 0.3 0 -0.1
v -0.2 0 -0.2
v 0.3 0 -0.2
v -0.1 0.1 0
v 0.2 0.1 0
v -0.3 0.1 -0.1
v -0.2 0.1 -0.1
v -0.1 0.1 -0.1
v 0.2 0.1 -0.1
v 0.3 0.1 -0.1
v 0.4 0.1 -0.1
v -0.3 0.1 -0.2
v -0.2 0.1 -0.2
v 0.3 0.1 -0.2
v 0.4 0.1 -0.2
v -0.1 0.2 0.1
v 0.2 0.2 0.1
v -0.2 0.2 0
v -0.1 0.2 0
v 0.2 0.2 0
v 0.3 0.2 0
v -0.2 0.2 -0.1
v -0.1 0.2 -0.1
v 0.2 0.2 -0.1
v 0.3 0.2 -0.1
v -0.1 0.5 0
v 0.2 0.5 0
v -0.2 0.5 -0.1
v -0.1 0.5 -0.1
v 0.2 0.5 -0.1
v 0.3 0.5 -0.1
v -0.2 0.5 -0.2
v -0.1 0.5 -0.2
v 0.2 0.5 -0.2
v 0.3 0.5 -0.2
v -0.1 0.6 -0.1
v 0.2 0.6 -0.1
v -0.1 0.6 -0.2
v 0.2 0.6 -0.2
v -0.1 0.1 -0.1
v 0.2 0.1 -0.1
v -0.1 0.1 -0.2
v 0.2 0.1 -0.2
v -0.1 0.2 0
v 0.2 0.2 0
v -0.2 0.2 -0.1
v -0.1 0.2 -0.1
v 0.2 0.2 -0.1
v 0.3 0.2 -0.1
v -0.2 0.2 -0.2
v -0.1 0.2 -0.2
v 0.2 0.2 -0.2
v 0.3 0.2 -0.2
v -0.1 0.5 0.1
v 0.2 0.5 0.1
v -0.2 0.5 0
v -0.1 0.5 0
v 0.2 0.5 0
v 0.3 0.5 0
v -0.2 0.5 -0.1
v -0.1 0.5 -0.1
v 0.2 0.5 -0.1
v 0.3 0.5 -0.1
v -0.1 0.6 0
v 0.2 0.6 0
v -0.3 0.6 -0.1
v -0.2 0.6 -0.1
v -0.1 0.6 -0.1
v 0.2 0.6 -0.1
v 0.3 0.6 -0.1
v 0.4 0.6 -0.1
v -0.3 0.6 -0.2
v -0.2 0.6 -0.2
v 0.3 0.6 -0.2
v 0.4 0.6 -0.2
v -0.2 0.7 -0.1
v 0.3 0.7 -0.1
v -0.2 0.7 -0.2
v 0.3 0.7 -0.2

# faces
f 3/2/1 2/2/1 1/2/1
f 4/2/1 2/2/1 3/2/1
f 7/2/1 6/2/1 5/2/1
f 8/2/1 6/2/1 7/2/1
f 11/1/1 10/1/1 9/1/1
f 12/1/1 10/1/1 11/1/1
f 15/2/1 14/2/1 13/2/1
f 16/2/1 14/2/1 15/2/1
f 20/1/1 18/1/1 17/1/1
f 21/1/1 18/1/1 20/1/1
f 22/1/1 20/1/1 19/1/1
f 23/1/1 20/1/1 22/1/1
f 25/1/1 24/1/1 23/1/1
f 26/1/1 24/1/1 25/1/1
f 30/2/1 28/2/1 27/2/1
f 31/2/1 28/2/1 30/2/1
f 32/1/1 30/1/1 29/1/1
f 33/1/1 30/1/1 32/1/1
f 35/2/1 34/2/1 33/2/1
f 36/2/1 34/2/1 35/2/1
f 39/2/1 38/2/1 37/2/1
f 40/2/1 38/2/1 39/2/1
f 41/2/2 42/2/2 43/2/2
f 43/2/2 42/2/2 44/2/2
f 45/2/2 46/2/2 48/2/2
f 48/2/2 46/2/2 49/2/2
f 47/1/2 48/1/2 50/1/2
f 50/1/2 48/1/2 51/1/2
f 51/2/2 52/2/2 53/2/2
f 53/2/2 52/2/2 54/2/2
f 55/1/2 56/1/2 58/1/2
f 58/1/2 56/1/2 59/1/2
f 57/1/2 58/1/2 60/1/2
f 60/1/2 58/1/2 61/1/2
f 61/1/2 62/1/2 63/1/2
f 63/1/2 62/1/2 64/1/2
f 65/2/2 66/2/2 67/2/2
f 67/2/2 66/2/2 68/2/2
f 69/1/2 70/1/2 71/1/2
f 71/1/2 70/1/2 72/1/2
f 73/2/2 74/2/2 75/2/2
f 75/2/2 74/2/2 76/2/2
f 77/2/2 78/2/2 79/2/2
f 79/2/2 78/2/2 80/2/2
f 83/1/3 82/1/3 81/1/3
f 84/1/3 82/1/3 83/1/3
f 85/1/3 83/1/3 81/1/3
f 85/2/3 84/2/3 83/2/3
f 86/1/3 82/1/3 84/1/3
f 86/2/3 84/2/3 85/2/3
f 87/1/3 85/1/3 81/1/3
f 87/1/3 86/1/3 85/1/3
f 88/1/3 82/1/3 86/1/3
f 88/1/3 86/1/3 87/1/3
f 92/1/3 90/1/3 89/1/3
f 93/1/3 90/1/3 92/1/3
f 95/1/3 92/1/3 91/1/3
f 96/1/3 92/1/3 95/1/3
f 97/1/3 94/1/3 93/1/3
f 98/1/3 94/1/3 97/1/3
f 99/1/3 97/1/3 96/1/3
f 100/1/3 97/1/3 99/1/3
f 104/2/3 102/2/3 101/2/3
f 105/2/3 102/2/3 104/2/3
f 106/2/3 102/2/3 105/2/3
f 107/2/3 102/2/3 106/2/3
f 109/2/3 104/2/3 103/2/3
f 109/2/3 105/2/3 104/2/3
f 110/2/3 105/2/3 109/2/3
f 111/2/3 108/2/3 107/2/3
f 111/2/3 107/2/3 106/2/3
f 112/2/3 108/2/3 111/2/3
f 113/2/3 109/2/3 103/2/3
f 116/2/3 108/2/3 112/2/3
f 117/2/3 114/2/3 113/2/3
f 117/2/3 113/2/3 103/2/3
f 118/2/3 114/2/3 117/2/3
f 119/2/3 114/2/3 118/2/3
f 120/2/3 116/2/3 115/2/3
f 121/2/3 108/2/3 116/2/3
f 121/2/3 116/2/3 120/2/3
f 122/2/3 108/2/3 121/2/3
f 123/2/3 119/2/3 118/2/3
f 123/2/3 120/2/3 119/2/3
f 123/2/3 121/2/3 120/2/3
f 124/2/3 121/2/3 123/2/3
f 125/1/4 126/1/4 127/1/4
f 127/1/4 126/1/4 128/1/4
f 125/1/4 127/1/4 129/1/4
f 127/2/4 128/2/4 129/2/4
f 128/1/4 126/1/4 130/1/4
f 129/2/4 128/2/4 130/2/4
f 125/1/4 129/1/4 131/1/4
f 129/1/4 130/1/4 131/1/4
f 130/1/4 126/1/4 132/1/4
f 131/1/4 130/1/4 132/1/4
f 133/1/4 134/1/4 136/1/4
f 136/1/4 134/1/4 137/1/4
f 135/1/4 136/1/4 139/1/4
f 139/1/4 136/1/4 140/1/4
f 137/1/4 138/1/4 141/1/4
f 141/1/4 138/1/4 142/1/4
f 140/1/4 141/1/4 143/1/4
f 143/1/4 141/1/4 144/1/4
f 145/2/4 146/2/4 148/2/4
f 148/2/4 146/2/4 149/2/4
f 149/2/4 146/2/4 150/2/4
f 150/2/4 146/2/4 151/2/4
f 147/2/4 148/2/4 153/2/4
f 148/2/4 149/2/4 153/2/4
f 153/2/4 149/2/4 154/2/4
f 151/2/4 152/2/4 155/2/4
f 150/2/4 151/2/4 155/2/4
f 155/2/4 152/2/4 156/2/4
f 147/2/4 153/2/4 157/2/4
f 156/2/4 152/2/4 160/2/4
f 157/2/4 158/2/4 161/2/4
f 147/2/4 157/2/4 161/2/4
f 161/2/4 158/2/4 162/2/4
f 162/2/4 158/2/4 163/2/4
f 159/2/4 160/2/4 164/2/4
f 160/2/4 152/2/4 165/2/4
f 164/2/4 160/2/4 165/2/4
f 165/2/4 152/2/4 166/2/4
f 162/2/4 163/2/4 167/2/4
f 163/2/4 164/2/4 167/2/4
f 164/2/4 165/2/4 167/2/4
f 167/2/4 165/2/4 168/2/4
f 171/2/5 170/2/5 169/2/5
f 172/2/5 170/2/5 171/2/5
f 177/1/5 174/1/5 173/1/5
f 178/1/5 174/1/5 177/1/5
f 181/2/5 176/2/5 175/2/5
f 182/2/5 176/2/5 181/2/5
f 183/2/5 180/2/5 179/2/5
f 184/2/5 180/2/5 183/2/5
f 188/1/5 186/1/5 185/1/5
f 189/1/5 186/1/5 188/1/5
f 191/1/5 188/1/5 187/1/5
f 192/1/5 188/1/5 191/1/5
f 193/1/5 190/1/5 189/1/5
f 194/1/5 190/1/5 193/1/5
f 198/1/5 196/1/5 195/1/5
f 199/1/5 196/1/5 198/1/5
f 201/2/5 198/2/5 197/2/5
f 202/2/5 198/2/5 201/2/5
f 203/2/5 200/2/5 199/2/5
f 204/2/5 200/2/5 203/2/5
f 207/2/5 206/2/5 205/2/5
f 208/2/5 206/2/5 207/2/5
f 209/2/6 210/2/6 211/2/6
f 211/2/6 210/2/6 212/2/6
f 213/1/6 214/1/6 216/1/6
f 216/1/6 214/1/6 217/1/6
f 215/2/6 216/2/6 219/2/6
f 219/2/6 216/2/6 220/2/6
f 217/2/6 218/2/6 221/2/6
f 221/2/6 218/2/6 222/2/6
f 223/1/6 224/1/6 226/1/6
f 226/1/6 224/1/6 227/1/6
f 225/1/6 226/1/6 229/1/6
f 229/1/6 226/1/6 230/1/6
f 227/1/6 228/1/6 231/1/6
f 231/1/6 228/1/6 232/1/6
f 233/1/6 234/1/6 237/1/6
f 237/1/6 234/1/6 238/1/6
f 235/2/6 236/2/6 241/2/6
f 241/2/6 236/2/6 242/2/6
f 239/2/6 240/2/6 243/2/6
f 243/2/6 240/2/6 244/2/6
f 245/2/6 246/2/6 247/2/6
f 247/2/6 246/2/6 248/2/6
