# Blender v2.80 (sub 48) OBJ File: ''
# www.blender.org
mtllib eye3.mtl
o eye3
v -0.159091 0.159091 0.050000
v -0.159091 0.059091 -0.050000
v -0.159091 0.059091 0.050000
v -0.159091 0.159091 -0.050000
v -0.059091 0.059091 0.050000
v -0.059091 -0.140909 -0.050000
v -0.059091 -0.140909 0.050000
v -0.059091 0.059091 -0.050000
v -0.059091 0.059091 0.050000
v -0.059091 0.059091 -0.050000
v -0.059091 0.159091 0.050000
v -0.059091 0.159091 -0.050000
v 0.140909 -0.140909 0.050000
v 0.140909 -0.140909 -0.050000
v 0.140909 -0.040909 0.050000
v 0.140909 -0.040909 -0.050000
v 0.140909 0.059091 0.050000
v 0.140909 0.059091 -0.050000
v -0.059091 0.059091 0.050000
v -0.159091 0.159091 0.050000
v -0.159091 0.059091 0.050000
v -0.059091 0.159091 0.050000
v 0.040909 -0.140909 0.050000
v -0.059091 -0.140909 0.050000
v 0.040909 -0.040909 0.050000
v 0.140909 -0.140909 0.050000
v 0.140909 -0.040909 0.050000
v 0.140909 0.059091 0.050000
v -0.159091 0.059091 -0.050000
v -0.159091 0.159091 -0.050000
v -0.059091 0.059091 -0.050000
v -0.059091 0.159091 -0.050000
v -0.059091 -0.140909 -0.050000
v 0.040909 -0.140909 -0.050000
v 0.040909 -0.040909 -0.050000
v 0.140909 -0.140909 -0.050000
v 0.140909 -0.040909 -0.050000
v 0.140909 0.059091 -0.050000
v -0.059091 -0.140909 -0.050000
v 0.040909 -0.140909 0.050000
v -0.059091 -0.140909 0.050000
v 0.040909 -0.140909 -0.050000
v 0.140909 -0.140909 0.050000
v 0.140909 -0.140909 -0.050000
v -0.159091 0.059091 -0.050000
v -0.059091 0.059091 0.050000
v -0.159091 0.059091 0.050000
v -0.059091 0.059091 -0.050000
v -0.059091 0.059091 0.050000
v 0.140909 0.059091 0.050000
v -0.059091 0.059091 -0.050000
v 0.140909 0.059091 -0.050000
v -0.159091 0.159091 0.050000
v -0.059091 0.159091 0.050000
v -0.159091 0.159091 -0.050000
v -0.059091 0.159091 -0.050000
vt 0.994141 0.500000
vt 0.994141 0.500000
vt 0.994141 0.500000
vt 0.994141 0.500000
vt 0.994141 0.500000
vt 0.994141 0.500000
vt 0.994141 0.500000
vt 0.994141 0.500000
vt 0.994141 0.500000
vt 0.994141 0.500000
vt 0.994141 0.500000
vt 0.994141 0.500000
vt 0.958984 0.500000
vt 0.958984 0.500000
vt 0.958984 0.500000
vt 0.958984 0.500000
vt 0.994141 0.500000
vt 0.994141 0.500000
vt 0.994141 0.500000
vt 0.994141 0.500000
vt 0.994141 0.500000
vt 0.994141 0.500000
vt 0.994141 0.500000
vt 0.994141 0.500000
vt 0.994141 0.500000
vt 0.994141 0.500000
vt 0.994141 0.500000
vt 0.958984 0.500000
vt 0.958984 0.500000
vt 0.958984 0.500000
vt 0.994141 0.500000
vt 0.958984 0.500000
vt 0.994141 0.500000
vt 0.994141 0.500000
vt 0.994141 0.500000
vt 0.994141 0.500000
vt 0.994141 0.500000
vt 0.994141 0.500000
vt 0.994141 0.500000
vt 0.994141 0.500000
vt 0.958984 0.500000
vt 0.958984 0.500000
vt 0.958984 0.500000
vt 0.994141 0.500000
vt 0.958984 0.500000
vt 0.994141 0.500000
vt 0.994141 0.500000
vt 0.994141 0.500000
vt 0.994141 0.500000
vt 0.958984 0.500000
vt 0.958984 0.500000
vt 0.958984 0.500000
vt 0.994141 0.500000
vt 0.958984 0.500000
vt 0.994141 0.500000
vt 0.994141 0.500000
vt 0.994141 0.500000
vt 0.994141 0.500000
vt 0.994141 0.500000
vt 0.994141 0.500000
vt 0.994141 0.500000
vt 0.994141 0.500000
vt 0.994141 0.500000
vt 0.994141 0.500000
vt 0.994141 0.500000
vt 0.994141 0.500000
vn -1.0000 0.0000 0.0000
vn 1.0000 -0.0000 0.0000
vn 0.0000 -0.0000 1.0000
vn 0.0000 0.0000 -1.0000
vn 0.0000 -1.0000 -0.0000
vn 0.0000 1.0000 0.0000
usemtl palette.009
s 1
f 1/1/1 2/2/1 3/3/1
f 4/4/1 2/2/1 1/1/1
f 5/5/1 6/6/1 7/7/1
f 8/8/1 6/6/1 5/5/1
f 9/9/2 10/10/2 11/11/2
f 11/11/2 10/10/2 12/12/2
f 13/13/2 14/14/2 15/15/2
f 15/15/2 14/14/2 16/16/2
f 15/17/2 16/18/2 17/19/2
f 17/19/2 16/18/2 18/20/2
f 19/21/3 20/22/3 21/23/3
f 22/24/3 20/22/3 19/21/3
f 23/25/3 19/21/3 24/26/3
f 25/27/3 19/21/3 23/25/3
f 26/28/3 25/29/3 23/30/3
f 27/31/3 19/21/3 25/27/3
f 27/32/3 25/29/3 26/28/3
f 28/33/3 19/21/3 27/31/3
f 29/34/4 30/35/4 31/36/4
f 31/36/4 30/35/4 32/37/4
f 33/38/4 31/36/4 34/39/4
f 34/39/4 31/36/4 35/40/4
f 34/41/4 35/42/4 36/43/4
f 35/40/4 31/36/4 37/44/4
f 36/43/4 35/42/4 37/45/4
f 37/44/4 31/36/4 38/46/4
f 39/47/5 40/48/5 41/49/5
f 42/50/5 43/51/5 40/52/5
f 42/53/5 40/48/5 39/47/5
f 44/54/5 43/51/5 42/50/5
f 45/55/5 46/56/5 47/57/5
f 48/58/5 46/56/5 45/55/5
f 49/59/6 50/60/6 51/61/6
f 51/61/6 50/60/6 52/62/6
f 53/63/6 54/64/6 55/65/6
f 55/65/6 54/64/6 56/66/6
