# MagicaVoxel @ Ephtracy

# group
o 

# material
mtllib bell.mtl
usemtl palette

# normals
vn -1 0 0
vn 1 0 0
vn 0 0 1
vn 0 0 -1
vn 0 -1 0
vn 0 1 0

# texcoords
vt 0.310547 0.5
vt 0.427734 0.5

# verts
v -0.3 -0.5 0.1
v -0.3 -0.5 -0.2
v -0.3 -0.4 0.1
v -0.3 -0.4 -0.2
v -0.2 -0.5 0.2
v -0.2 -0.5 0.1
v -0.2 -0.5 -0.2
v -0.2 -0.5 -0.3
v -0.2 -0.4 0.2
v -0.2 -0.4 0.1
v -0.2 -0.4 -0.2
v -0.2 -0.4 -0.3
v -0.2 -0.1 0.1
v -0.2 -0.1 -0.2
v -0.1 -0.5 0.3
v -0.1 -0.5 0.2
v -0.1 -0.5 -0.3
v -0.1 -0.5 -0.4
v -0.1 -0.4 0.3
v -0.1 -0.4 0.2
v -0.1 -0.4 0.1
v -0.1 -0.4 -0.2
v -0.1 -0.4 -0.3
v -0.1 -0.4 -0.4
v -0.1 -0.1 0.2
v -0.1 -0.1 0.1
v -0.1 -0.1 -0.2
v -0.1 -0.1 -0.3
v -0.1 -5.96046e-008 0.1
v -0.1 -5.96046e-008 -0.2
v 0 -0.6 0
v 0 -0.6 -0.1
v 0 -0.2 0
v 0 -0.2 -0.1
v 0 -5.96046e-008 0
v 0 -5.96046e-008 -0.1
v 0 0.1 0
v 0 0.1 -0.1
v 0 0.6 0
v 0 0.6 -0.1
v 0 0.7 0
v 0 0.7 -0.1
v 0.1 -0.2 0
v 0.1 -0.2 -0.1
v 0.1 -5.96046e-008 0
v 0.1 -5.96046e-008 -0.1
v 0.2 -0.5 0.2
v 0.2 -0.5 0.1
v 0.2 -0.5 -0.2
v 0.2 -0.5 -0.3
v 0.2 -0.4 0.2
v 0.2 -0.4 0.1
v 0.2 -0.4 -0.2
v 0.2 -0.4 -0.3
v 0.2 -0.2 0.1
v 0.2 -0.2 -0.2
v 0.3 -0.5 0.1
v 0.3 -0.5 -0.2
v 0.3 -0.4 0.1
v 0.3 -0.4 -0.2
v -0.2 -0.5 0.1
v -0.2 -0.5 -0.2
v -0.2 -0.4 0.1
v -0.2 -0.4 -0.2
v -0.1 -0.5 0.2
v -0.1 -0.5 0.1
v -0.1 -0.5 -0.2
v -0.1 -0.5 -0.3
v -0.1 -0.4 0.2
v -0.1 -0.4 0.1
v -0.1 -0.4 -0.2
v -0.1 -0.4 -0.3
v -0.1 -0.2 0.1
v -0.1 -0.2 -0.2
v 0 -0.2 0
v 0 -0.2 -0.1
v 0 -5.96046e-008 0
v 0 -5.96046e-008 -0.1
v 0.1 -0.6 0
v 0.1 -0.6 -0.1
v 0.1 -0.2 0
v 0.1 -0.2 -0.1
v 0.1 -5.96046e-008 0
v 0.1 -5.96046e-008 -0.1
v 0.1 0.1 0
v 0.1 0.1 -0.1
v 0.1 0.6 0
v 0.1 0.6 -0.1
v 0.1 0.7 0
v 0.1 0.7 -0.1
v 0.2 -0.5 0.3
v 0.2 -0.5 0.2
v 0.2 -0.5 -0.3
v 0.2 -0.5 -0.4
v 0.2 -0.4 0.3
v 0.2 -0.4 0.2
v 0.2 -0.4 0.1
v 0.2 -0.4 -0.2
v 0.2 -0.4 -0.3
v 0.2 -0.4 -0.4
v 0.2 -0.1 0.2
v 0.2 -0.1 0.1
v 0.2 -0.1 -0.2
v 0.2 -0.1 -0.3
v 0.2 -5.96046e-008 0.1
v 0.2 -5.96046e-008 -0.2
v 0.3 -0.5 0.2
v 0.3 -0.5 0.1
v 0.3 -0.5 -0.2
v 0.3 -0.5 -0.3
v 0.3 -0.4 0.2
v 0.3 -0.4 0.1
v 0.3 -0.4 -0.2
v 0.3 -0.4 -0.3
v 0.3 -0.1 0.1
v 0.3 -0.1 -0.2
v 0.4 -0.5 0.1
v 0.4 -0.5 -0.2
v 0.4 -0.4 0.1
v 0.4 -0.4 -0.2
v -0.1 -0.5 0.3
v -0.1 -0.4 0.3
v 0.2 -0.5 0.3
v 0.2 -0.4 0.3
v -0.2 -0.5 0.2
v -0.2 -0.4 0.2
v -0.1 -0.5 0.2
v -0.1 -0.4 0.2
v -0.1 -0.1 0.2
v 0.2 -0.5 0.2
v 0.2 -0.4 0.2
v 0.2 -0.1 0.2
v 0.3 -0.5 0.2
v 0.3 -0.4 0.2
v -0.3 -0.5 0.1
v -0.3 -0.4 0.1
v -0.2 -0.5 0.1
v -0.2 -0.4 0.1
v -0.2 -0.1 0.1
v -0.1 -0.4 0.1
v -0.1 -0.1 0.1
v -0.1 -5.96046e-008 0.1
v 0.2 -0.4 0.1
v 0.2 -0.1 0.1
v 0.2 -5.96046e-008 0.1
v 0.3 -0.5 0.1
v 0.3 -0.4 0.1
v 0.3 -0.1 0.1
v 0.4 -0.5 0.1
v 0.4 -0.4 0.1
v 0 -0.6 0
v 0 -0.2 0
v 0 -5.96046e-008 0
v 0 0.1 0
v 0 0.6 0
v 0 0.7 0
v 0.1 -0.6 0
v 0.1 -0.2 0
v 0.1 -5.96046e-008 0
v 0.1 0.1 0
v 0.1 0.6 0
v 0.1 0.7 0
v 0 -0.2 -0.1
v 0 -5.96046e-008 -0.1
v 0.1 -0.2 -0.1
v 0.1 -5.96046e-008 -0.1
v -0.2 -0.5 -0.2
v -0.2 -0.4 -0.2
v -0.1 -0.5 -0.2
v -0.1 -0.4 -0.2
v -0.1 -0.2 -0.2
v 0.2 -0.5 -0.2
v 0.2 -0.4 -0.2
v 0.2 -0.2 -0.2
v 0.3 -0.5 -0.2
v 0.3 -0.4 -0.2
v -0.1 -0.5 -0.3
v -0.1 -0.4 -0.3
v 0.2 -0.5 -0.3
v 0.2 -0.4 -0.3
v -0.1 -0.5 0.2
v -0.1 -0.4 0.2
v 0.2 -0.5 0.2
v 0.2 -0.4 0.2
v -0.2 -0.5 0.1
v -0.2 -0.4 0.1
v -0.1 -0.5 0.1
v -0.1 -0.4 0.1
v -0.1 -0.2 0.1
v 0.2 -0.5 0.1
v 0.2 -0.4 0.1
v 0.2 -0.2 0.1
v 0.3 -0.5 0.1
v 0.3 -0.4 0.1
v 0 -0.2 0
v 0 -5.96046e-008 0
v 0.1 -0.2 0
v 0.1 -5.96046e-008 0
v 0 -0.6 -0.1
v 0 -0.2 -0.1
v 0 -5.96046e-008 -0.1
v 0 0.1 -0.1
v 0 0.6 -0.1
v 0 0.7 -0.1
v 0.1 -0.6 -0.1
v 0.1 -0.2 -0.1
v 0.1 -5.96046e-008 -0.1
v 0.1 0.1 -0.1
v 0.1 0.6 -0.1
v 0.1 0.7 -0.1
v -0.3 -0.5 -0.2
v -0.3 -0.4 -0.2
v -0.2 -0.5 -0.2
v -0.2 -0.4 -0.2
v -0.2 -0.1 -0.2
v -0.1 -0.4 -0.2
v -0.1 -0.1 -0.2
v -0.1 -5.96046e-008 -0.2
v 0.2 -0.4 -0.2
v 0.2 -0.1 -0.2
v 0.2 -5.96046e-008 -0.2
v 0.3 -0.5 -0.2
v 0.3 -0.4 -0.2
v 0.3 -0.1 -0.2
v 0.4 -0.5 -0.2
v 0.4 -0.4 -0.2
v -0.2 -0.5 -0.3
v -0.2 -0.4 -0.3
v -0.1 -0.5 -0.3
v -0.1 -0.4 -0.3
v -0.1 -0.1 -0.3
v 0.2 -0.5 -0.3
v 0.2 -0.4 -0.3
v 0.2 -0.1 -0.3
v 0.3 -0.5 -0.3
v 0.3 -0.4 -0.3
v -0.1 -0.5 -0.4
v -0.1 -0.4 -0.4
v 0.2 -0.5 -0.4
v 0.2 -0.4 -0.4
v 0 -0.6 0
v 0.1 -0.6 0
v 0 -0.6 -0.1
v 0.1 -0.6 -0.1
v -0.1 -0.5 0.3
v 0.2 -0.5 0.3
v -0.2 -0.5 0.2
v -0.1 -0.5 0.2
v 0.2 -0.5 0.2
v 0.3 -0.5 0.2
v -0.3 -0.5 0.1
v -0.2 -0.5 0.1
v -0.1 -0.5 0.1
v 0.2 -0.5 0.1
v 0.3 -0.5 0.1
v 0.4 -0.5 0.1
v -0.3 -0.5 -0.2
v -0.2 -0.5 -0.2
v -0.1 -0.5 -0.2
v 0.2 -0.5 -0.2
v 0.3 -0.5 -0.2
v 0.4 -0.5 -0.2
v -0.2 -0.5 -0.3
v -0.1 -0.5 -0.3
v 0.2 -0.5 -0.3
v 0.3 -0.5 -0.3
v -0.1 -0.5 -0.4
v 0.2 -0.5 -0.4
v -0.1 -0.4 0.2
v 0.2 -0.4 0.2
v -0.2 -0.4 0.1
v -0.1 -0.4 0.1
v 0.2 -0.4 0.1
v 0.3 -0.4 0.1
v -0.2 -0.4 -0.2
v -0.1 -0.4 -0.2
v 0.2 -0.4 -0.2
v 0.3 -0.4 -0.2
v -0.1 -0.4 -0.3
v 0.2 -0.4 -0.3
v -0.1 -0.2 0.1
v 0.2 -0.2 0.1
v 0 -0.2 0
v 0.1 -0.2 0
v 0 -0.2 -0.1
v 0.1 -0.2 -0.1
v -0.1 -0.2 -0.2
v 0.2 -0.2 -0.2
v 0 -5.96046e-008 0
v 0.1 -5.96046e-008 0
v 0 -5.96046e-008 -0.1
v 0.1 -5.96046e-008 -0.1
v -0.1 -0.4 0.3
v 0.2 -0.4 0.3
v -0.2 -0.4 0.2
v -0.1 -0.4 0.2
v 0.2 -0.4 0.2
v 0.3 -0.4 0.2
v -0.3 -0.4 0.1
v -0.2 -0.4 0.1
v -0.1 -0.4 0.1
v 0.2 -0.4 0.1
v 0.3 -0.4 0.1
v 0.4 -0.4 0.1
v -0.3 -0.4 -0.2
v -0.2 -0.4 -0.2
v -0.1 -0.4 -0.2
v 0.2 -0.4 -0.2
v 0.3 -0.4 -0.2
v 0.4 -0.4 -0.2
v -0.2 -0.4 -0.3
v -0.1 -0.4 -0.3
v 0.2 -0.4 -0.3
v 0.3 -0.4 -0.3
v -0.1 -0.4 -0.4
v 0.2 -0.4 -0.4
v 0 -0.2 0
v 0.1 -0.2 0
v 0 -0.2 -0.1
v 0.1 -0.2 -0.1
v -0.1 -0.1 0.2
v 0.2 -0.1 0.2
v -0.2 -0.1 0.1
v -0.1 -0.1 0.1
v 0.2 -0.1 0.1
v 0.3 -0.1 0.1
v -0.2 -0.1 -0.2
v -0.1 -0.1 -0.2
v 0.2 -0.1 -0.2
v 0.3 -0.1 -0.2
v -0.1 -0.1 -0.3
v 0.2 -0.1 -0.3
v -0.1 -5.96046e-008 0.1
v 0.2 -5.96046e-008 0.1
v 0 -5.96046e-008 0
v 0.1 -5.96046e-008 0
v 0 -5.96046e-008 -0.1
v 0.1 -5.96046e-008 -0.1
v -0.1 -5.96046e-008 -0.2
v 0.2 -5.96046e-008 -0.2
v 0 0.7 0
v 0.1 0.7 0
v 0 0.7 -0.1
v 0.1 0.7 -0.1

# faces
f 3/2/1 2/2/1 1/2/1
f 4/2/1 2/2/1 3/2/1
f 9/2/1 6/2/1 5/2/1
f 10/2/1 6/2/1 9/2/1
f 11/2/1 8/2/1 7/2/1
f 12/2/1 8/2/1 11/2/1
f 13/2/1 11/2/1 10/2/1
f 14/2/1 11/2/1 13/2/1
f 19/2/1 16/2/1 15/2/1
f 20/2/1 16/2/1 19/2/1
f 23/2/1 18/2/1 17/2/1
f 24/2/1 18/2/1 23/2/1
f 25/2/1 21/2/1 20/2/1
f 26/2/1 21/2/1 25/2/1
f 27/2/1 23/2/1 22/2/1
f 28/2/1 23/2/1 27/2/1
f 29/2/1 27/2/1 26/2/1
f 30/2/1 27/2/1 29/2/1
f 33/2/1 32/2/1 31/2/1
f 34/2/1 32/2/1 33/2/1
f 37/2/1 36/2/1 35/2/1
f 38/2/1 36/2/1 37/2/1
f 39/1/1 38/1/1 37/1/1
f 40/1/1 38/1/1 39/1/1
f 41/2/1 40/2/1 39/2/1
f 42/2/1 40/2/1 41/2/1
f 45/2/1 44/2/1 43/2/1
f 46/2/1 44/2/1 45/2/1
f 51/2/1 48/2/1 47/2/1
f 52/2/1 48/2/1 51/2/1
f 53/2/1 50/2/1 49/2/1
f 54/2/1 50/2/1 53/2/1
f 55/2/1 53/2/1 52/2/1
f 56/2/1 53/2/1 55/2/1
f 59/2/1 58/2/1 57/2/1
f 60/2/1 58/2/1 59/2/1
f 61/2/2 62/2/2 63/2/2
f 63/2/2 62/2/2 64/2/2
f 65/2/2 66/2/2 69/2/2
f 69/2/2 66/2/2 70/2/2
f 67/2/2 68/2/2 71/2/2
f 71/2/2 68/2/2 72/2/2
f 70/2/2 71/2/2 73/2/2
f 73/2/2 71/2/2 74/2/2
f 75/2/2 76/2/2 77/2/2
f 77/2/2 76/2/2 78/2/2
f 79/2/2 80/2/2 81/2/2
f 81/2/2 80/2/2 82/2/2
f 83/2/2 84/2/2 85/2/2
f 85/2/2 84/2/2 86/2/2
f 85/1/2 86/1/2 87/1/2
f 87/1/2 86/1/2 88/1/2
f 87/2/2 88/2/2 89/2/2
f 89/2/2 88/2/2 90/2/2
f 91/2/2 92/2/2 95/2/2
f 95/2/2 92/2/2 96/2/2
f 93/2/2 94/2/2 99/2/2
f 99/2/2 94/2/2 100/2/2
f 96/2/2 97/2/2 101/2/2
f 101/2/2 97/2/2 102/2/2
f 98/2/2 99/2/2 103/2/2
f 103/2/2 99/2/2 104/2/2
f 102/2/2 103/2/2 105/2/2
f 105/2/2 103/2/2 106/2/2
f 107/2/2 108/2/2 111/2/2
f 111/2/2 108/2/2 112/2/2
f 109/2/2 110/2/2 113/2/2
f 113/2/2 110/2/2 114/2/2
f 112/2/2 113/2/2 115/2/2
f 115/2/2 113/2/2 116/2/2
f 117/2/2 118/2/2 119/2/2
f 119/2/2 118/2/2 120/2/2
f 123/2/3 122/2/3 121/2/3
f 124/2/3 122/2/3 123/2/3
f 127/2/3 126/2/3 125/2/3
f 128/2/3 126/2/3 127/2/3
f 131/2/3 129/2/3 128/2/3
f 132/2/3 129/2/3 131/2/3
f 133/2/3 131/2/3 130/2/3
f 134/2/3 131/2/3 133/2/3
f 137/2/3 136/2/3 135/2/3
f 138/2/3 136/2/3 137/2/3
f 140/2/3 139/2/3 138/2/3
f 141/2/3 139/2/3 140/2/3
f 144/2/3 142/2/3 141/2/3
f 145/2/3 142/2/3 144/2/3
f 147/2/3 144/2/3 143/2/3
f 148/2/3 144/2/3 147/2/3
f 149/2/3 147/2/3 146/2/3
f 150/2/3 147/2/3 149/2/3
f 157/2/3 152/2/3 151/2/3
f 158/2/3 152/2/3 157/2/3
f 159/2/3 154/2/3 153/2/3
f 160/1/3 155/1/3 154/1/3
f 160/2/3 154/2/3 159/2/3
f 161/2/3 156/2/3 155/2/3
f 161/1/3 155/1/3 160/1/3
f 162/2/3 156/2/3 161/2/3
f 165/2/3 164/2/3 163/2/3
f 166/2/3 164/2/3 165/2/3
f 169/2/3 168/2/3 167/2/3
f 170/2/3 168/2/3 169/2/3
f 173/2/3 171/2/3 170/2/3
f 174/2/3 171/2/3 173/2/3
f 175/2/3 173/2/3 172/2/3
f 176/2/3 173/2/3 175/2/3
f 179/2/3 178/2/3 177/2/3
f 180/2/3 178/2/3 179/2/3
f 181/2/4 182/2/4 183/2/4
f 183/2/4 182/2/4 184/2/4
f 185/2/4 186/2/4 187/2/4
f 187/2/4 186/2/4 188/2/4
f 188/2/4 189/2/4 191/2/4
f 191/2/4 189/2/4 192/2/4
f 190/2/4 191/2/4 193/2/4
f 193/2/4 191/2/4 194/2/4
f 195/2/4 196/2/4 197/2/4
f 197/2/4 196/2/4 198/2/4
f 199/2/4 200/2/4 205/2/4
f 205/2/4 200/2/4 206/2/4
f 201/2/4 202/2/4 207/2/4
f 202/1/4 203/1/4 208/1/4
f 207/2/4 202/2/4 208/2/4
f 203/2/4 204/2/4 209/2/4
f 208/1/4 203/1/4 209/1/4
f 209/2/4 204/2/4 210/2/4
f 211/2/4 212/2/4 213/2/4
f 213/2/4 212/2/4 214/2/4
f 214/2/4 215/2/4 216/2/4
f 216/2/4 215/2/4 217/2/4
f 217/2/4 218/2/4 220/2/4
f 220/2/4 218/2/4 221/2/4
f 219/2/4 220/2/4 223/2/4
f 223/2/4 220/2/4 224/2/4
f 222/2/4 223/2/4 225/2/4
f 225/2/4 223/2/4 226/2/4
f 227/2/4 228/2/4 229/2/4
f 229/2/4 228/2/4 230/2/4
f 230/2/4 231/2/4 233/2/4
f 233/2/4 231/2/4 234/2/4
f 232/2/4 233/2/4 235/2/4
f 235/2/4 233/2/4 236/2/4
f 237/2/4 238/2/4 239/2/4
f 239/2/4 238/2/4 240/2/4
f 243/2/5 242/2/5 241/2/5
f 244/2/5 242/2/5 243/2/5
f 248/2/5 246/2/5 245/2/5
f 249/2/5 246/2/5 248/2/5
f 252/2/5 248/2/5 247/2/5
f 253/2/5 248/2/5 252/2/5
f 254/2/5 250/2/5 249/2/5
f 255/2/5 250/2/5 254/2/5
f 257/2/5 252/2/5 251/2/5
f 258/2/5 252/2/5 257/2/5
f 261/2/5 256/2/5 255/2/5
f 262/2/5 256/2/5 261/2/5
f 263/2/5 259/2/5 258/2/5
f 264/2/5 259/2/5 263/2/5
f 265/2/5 261/2/5 260/2/5
f 266/2/5 261/2/5 265/2/5
f 267/2/5 265/2/5 264/2/5
f 268/2/5 265/2/5 267/2/5
f 272/2/5 270/2/5 269/2/5
f 273/2/5 270/2/5 272/2/5
f 275/2/5 272/2/5 271/2/5
f 276/2/5 272/2/5 275/2/5
f 277/2/5 274/2/5 273/2/5
f 278/2/5 274/2/5 277/2/5
f 279/2/5 277/2/5 276/2/5
f 280/2/5 277/2/5 279/2/5
f 283/2/5 282/2/5 281/2/5
f 284/2/5 282/2/5 283/2/5
f 285/2/5 283/2/5 281/2/5
f 286/2/5 282/2/5 284/2/5
f 287/2/5 285/2/5 281/2/5
f 287/2/5 286/2/5 285/2/5
f 288/2/5 282/2/5 286/2/5
f 288/2/5 286/2/5 287/2/5
f 291/2/5 290/2/5 289/2/5
f 292/2/5 290/2/5 291/2/5
f 293/2/6 294/2/6 296/2/6
f 296/2/6 294/2/6 297/2/6
f 295/2/6 296/2/6 300/2/6
f 300/2/6 296/2/6 301/2/6
f 297/2/6 298/2/6 302/2/6
f 302/2/6 298/2/6 303/2/6
f 299/2/6 300/2/6 305/2/6
f 305/2/6 300/2/6 306/2/6
f 303/2/6 304/2/6 309/2/6
f 309/2/6 304/2/6 310/2/6
f 306/2/6 307/2/6 311/2/6
f 311/2/6 307/2/6 312/2/6
f 308/2/6 309/2/6 313/2/6
f 313/2/6 309/2/6 314/2/6
f 312/2/6 313/2/6 315/2/6
f 315/2/6 313/2/6 316/2/6
f 317/2/6 318/2/6 319/2/6
f 319/2/6 318/2/6 320/2/6
f 321/2/6 322/2/6 324/2/6
f 324/2/6 322/2/6 325/2/6
f 323/2/6 324/2/6 327/2/6
f 327/2/6 324/2/6 328/2/6
f 325/2/6 326/2/6 329/2/6
f 329/2/6 326/2/6 330/2/6
f 328/2/6 329/2/6 331/2/6
f 331/2/6 329/2/6 332/2/6
f 333/2/6 334/2/6 335/2/6
f 335/2/6 334/2/6 336/2/6
f 333/2/6 335/2/6 337/2/6
f 336/2/6 334/2/6 338/2/6
f 333/2/6 337/2/6 339/2/6
f 337/2/6 338/2/6 339/2/6
f 338/2/6 334/2/6 340/2/6
f 339/2/6 338/2/6 340/2/6
f 341/2/6 342/2/6 343/2/6
f 343/2/6 342/2/6 344/2/6
